<svg xmlns="http://www.w3.org/2000/svg" viewBox="0 0 512 512" id="ai-brain-management"><path fill="#57a4ff" d="M208.25,55.75a159.994,159.994,0,0,0-160,160q0,4.02.2,8h-.2l1.44,18.7-33.44,61.3,38.58,5.51,3.27,42.49h78.15v40H61.17l3.08,40h64l8,64h184L306.29,342.19A160,160,0,0,0,208.25,55.75Zm101.98,136h26.02v32H310.23a63.475,63.475,0,0,1-6.85,16.5l18.41,18.41-22.63,22.63-18.41-18.41a63.475,63.475,0,0,1-16.5,6.85v26.02h-32V269.73a63.475,63.475,0,0,1-16.5-6.85l-18.41,18.41-22.63-22.63,18.41-18.41a63.475,63.475,0,0,1-6.85-16.5H160.25v-32h26.02a63.475,63.475,0,0,1,6.85-16.5l-18.41-18.41,22.63-22.63,18.41,18.41a63.475,63.475,0,0,1,16.5-6.85V119.75h32v26.02a63.475,63.475,0,0,1,16.5,6.85l18.41-18.41,22.63,22.63-18.41,18.41A63.475,63.475,0,0,1,310.23,191.75Z"></path><circle cx="480.25" cy="207.75" r="16" fill="#57a4ff"></circle><circle cx="480.25" cy="31.75" r="16" fill="#57a4ff"></circle><circle cx="480.25" cy="383.75" r="16" fill="#57a4ff"></circle><g><path fill="#004fac" d="M136 192H80a8 8 0 00-8 8v40a8 8 0 008 8h40a8 8 0 007.428-5.029l16-40A8 8 0 00136 192zm-21.416 40H88V208h36.184zM280 176a8 8 0 00-8 8v48a8 8 0 0016 0V184A8 8 0 00280 176z"></path><path fill="#004fac" d="M336,184H315.9a69.488,69.488,0,0,0-2.93-7.03l14.23-14.23a8,8,0,0,0,0-11.31L304.57,128.8a8,8,0,0,0-11.31,0l-14.23,14.23A69.488,69.488,0,0,0,272,140.1V120a8,8,0,0,0-8-8H232a8,8,0,0,0-8,8v20.1a69.488,69.488,0,0,0-7.03,2.93L202.74,128.8a8,8,0,0,0-11.31,0L168.8,151.43a8,8,0,0,0,0,11.31l14.23,14.23A69.488,69.488,0,0,0,180.1,184H160a8,8,0,0,0-8,8v32a8,8,0,0,0,8,8h20.1a71.867,71.867,0,0,0,2.93,7.03L168.8,253.26a8,8,0,0,0,0,11.31l22.63,22.63a8,8,0,0,0,11.31,0l14.23-14.23A71.867,71.867,0,0,0,224,275.9V296a8,8,0,0,0,8,8h32a8,8,0,0,0,8-8V275.9a71.867,71.867,0,0,0,7.03-2.93l14.23,14.23a8,8,0,0,0,11.31,0l22.63-22.63a8,8,0,0,0,0-11.31l-14.23-14.23A71.867,71.867,0,0,0,315.9,232H336a8,8,0,0,0,8-8V192A8,8,0,0,0,336,184Zm-8,32H309.98a7.99,7.99,0,0,0-7.74,6.01,55.877,55.877,0,0,1-6,14.42,8,8,0,0,0,1.23,9.73l12.76,12.75-11.32,11.32-12.75-12.76a8,8,0,0,0-9.73-1.23,55.877,55.877,0,0,1-14.42,6,7.99,7.99,0,0,0-6.01,7.74V288H240V269.98a7.99,7.99,0,0,0-6.01-7.74,55.877,55.877,0,0,1-14.42-6,8,8,0,0,0-9.73,1.23l-12.75,12.76-11.32-11.32,12.76-12.75a8,8,0,0,0,1.23-9.73,55.877,55.877,0,0,1-6-14.42,7.99,7.99,0,0,0-7.74-6.01H168V200h18.02a7.99,7.99,0,0,0,7.74-6.01,55.877,55.877,0,0,1,6-14.42,8,8,0,0,0-1.23-9.73l-12.76-12.75,11.32-11.32,12.75,12.76a8,8,0,0,0,9.73,1.23,55.877,55.877,0,0,1,14.42-6,7.99,7.99,0,0,0,6.01-7.74V128h16v18.02a7.99,7.99,0,0,0,6.01,7.74,55.877,55.877,0,0,1,14.42,6,8,8,0,0,0,9.73-1.23l12.75-12.76,11.32,11.32-12.76,12.75a8,8,0,0,0-1.23,9.73,55.877,55.877,0,0,1,6,14.42,7.99,7.99,0,0,0,7.74,6.01H328Z"></path><path fill="#004fac" d="M457.38,216a24,24,0,1,0,0-16H375.23a166.782,166.782,0,0,0-24.18-72H416a8,8,0,0,0,8-8V40h33.38a24,24,0,1,0,0-16H416a8,8,0,0,0-8,8v80H339.85A167.785,167.785,0,0,0,208,48C115.36,48,40,123.36,40,216c0,2.14.04,4.34.13,6.57a8.176,8.176,0,0,0-.11,2.04l1.26,16.34L8.98,300.17a8,8,0,0,0,5.89,11.75l32.23,4.6,8.92,116.09A8,8,0,0,0,64,440h56.94l7.12,56.99A8,8,0,0,0,136,504H320a8.006,8.006,0,0,0,7.97-8.72L314.4,346.01a168.371,168.371,0,0,0,36.85-42.05,6.282,6.282,0,0,0,.75.04h56v80a8,8,0,0,0,8,8h41.38a24,24,0,1,0,0-16H424V296a8,8,0,0,0-8-8H359.92A167.744,167.744,0,0,0,376,216ZM480,200a8,8,0,1,1-8,8A8.011,8.011,0,0,1,480,200Zm0-176a8,8,0,1,1-8,8A8.011,8.011,0,0,1,480,24Zm0,352a8,8,0,1,1-8,8A8.011,8.011,0,0,1,480,376ZM66.49,360H128v24H68.33Zm234.64-23.88a8.024,8.024,0,0,0-3.06,7.04l.81,8.84H227.31l-53.65-53.66A8.008,8.008,0,0,0,168,296H120a8,8,0,0,0,0,16h44.69l53.65,53.66A8.008,8.008,0,0,0,224,368h76.33l2.18,24H256a8,8,0,0,0,0,16h47.97l7.27,80H143.06l-7.12-56.99A8,8,0,0,0,128,424H71.41l-1.85-24H136a8,8,0,0,0,8-8V352a8,8,0,0,0-8-8H65.26l-2.7-35.1a8.012,8.012,0,0,0-6.85-7.31l-27.17-3.88,27.92-51.18a7.993,7.993,0,0,0,.96-4.44l-1.31-16.92a7.39,7.39,0,0,0,.08-1.56c-.13-2.58-.19-5.14-.19-7.61,0-83.81,68.19-152,152-152,1.54,0,3.08.03,4.61.08L148.69,128H112a8,8,0,0,0,0,16h40a8.008,8.008,0,0,0,5.66-2.34L233.21,66.1C305.07,78.15,360,140.77,360,216A151.093,151.093,0,0,1,301.13,336.12Z"></path><path fill="#004fac" d="M248,176H216a8,8,0,0,0-8,8v48a8,8,0,0,0,16,0V216h16v16a8,8,0,0,0,16,0V184A8,8,0,0,0,248,176Zm-8,24H224v-8h16Z"></path></g></svg>