<svg width="20" height="24" viewBox="0 0 20 24" fill="white" xmlns="http://www.w3.org/2000/svg">
<g clip-path="url(#clip0_3001_233420)">
<path d="M11.0351 2.08854C12.647 0.0101326 14.8879 0 14.8879 0C14.8879 0 15.2212 1.95406 13.6199 3.83643C11.91 5.84639 9.96657 5.5175 9.96657 5.5175C9.96657 5.5175 9.60164 3.93673 11.0351 2.08854V2.08854ZM10.1716 6.88631C11.0008 6.88631 12.5399 5.77117 14.5432 5.77117C17.9915 5.77117 19.348 8.17157 19.348 8.17157C19.348 8.17157 16.6948 9.49863 16.6948 12.7187C16.6948 16.3511 20 17.603 20 17.603C20 17.603 17.6896 23.9648 14.5688 23.9648C13.1355 23.9648 12.0212 23.0198 10.5109 23.0198C8.97188 23.0198 7.4446 24 6.44987 24C3.60017 24.0001 0 17.9653 0 13.1143C0 8.3417 3.0473 5.83804 5.90555 5.83804C7.76367 5.83804 9.20559 6.88631 10.1716 6.88631V6.88631Z" fill="white"/>
</g>
<defs>
<clipPath id="clip0_3001_233420">
<rect width="20" height="24" fill="white"/>
</clipPath>
</defs>
</svg>
