<svg width="1526" height="639" viewBox="0 0 1526 639" fill="none" xmlns="http://www.w3.org/2000/svg">
<g clip-path="url(#clip0_3947_186600)">
<mask id="mask0_3947_186600" style="mask-type:alpha" maskUnits="userSpaceOnUse" x="-1" y="0" width="1527" height="639">
<rect x="-1" width="1527" height="639" fill="url(#paint0_radial_3947_186600)"/>
</mask>
<g mask="url(#mask0_3947_186600)">
<g opacity="0.5">
<g filter="url(#filter0_f_3947_186600)">
<path d="M-2 223.965L228.055 187.807M228.055 187.807L333.497 62.1048M228.055 187.807L373.589 252.612M228.055 187.807L185.014 335.272M333.497 62.1048L645.123 131.473M333.497 62.1048L373.589 252.612M333.497 62.1048L185.014 335.272M333.497 62.1048L745.678 344.086M645.123 131.473L848.865 187.807M645.123 131.473L681.022 294.807M645.123 131.473L373.589 252.612M848.865 187.807L1150.72 89.5348L1220.26 170.465M848.865 187.807L1030.99 335.272M848.865 187.807L709.779 465.281M848.865 187.807L1220.26 170.465M848.865 187.807L726.507 252.612M1220.26 170.465L1373.63 44.7627M1220.26 170.465L1030.99 335.272M1220.26 170.465L1236.99 303.421M1373.63 44.7627L1527 76.4999V49.75M1373.63 44.7627L1527 23V49.75M1373.63 44.7627L1325.7 187.807M1325.7 187.807L1527 216.71V258.649L1282.66 351.191M1325.7 187.807L1256.16 361.228M1256.16 361.228V403.167M1256.16 361.228L1464.79 403.167M1256.16 361.228L1030.99 335.272M1256.16 361.228L1282.66 351.191M1256.16 361.228L1236.99 303.421M1256.16 403.167H1464.79M1256.16 403.167L1030.99 335.272M1464.79 403.167L1527 335.272V384.351L1464.79 403.167ZM1030.99 335.272L1236.99 303.421M1030.99 335.272L788.907 620M1030.99 335.272L1004.68 403.167L937.578 475.369L745.678 344.086M1030.99 335.272L709.779 465.281M1030.99 335.272L681.022 294.807M1236.99 303.421L1282.66 351.191M709.779 465.281L788.907 620M709.779 465.281L172.985 547.684M709.779 465.281L645.123 403.167L436.495 416.221L415.068 417.562M709.779 465.281L681.022 294.807M709.779 465.281L415.068 417.562M709.779 465.281L295.154 284.605L14.7278 498.492M788.907 620L172.985 547.684M788.907 620L415.068 417.562M172.985 547.684L415.068 417.562M172.985 547.684L373.589 252.612M172.985 547.684L185.014 335.272M172.985 547.684L-2 557.772M172.985 547.684L31.4557 475.369M415.068 417.562L185.014 335.272M415.068 417.562L726.507 252.612M373.589 252.612L185.014 335.272M373.589 252.612L415.068 302.049M185.014 335.272L-2 313.509M185.014 335.272L-2 351.191M681.022 294.807L415.068 302.049M1030.99 313.509L918.407 335.272M918.407 335.272L1030.99 199.368L1167.63 187.807L1424 89.5348L1527 49.75M918.407 335.272L726.507 252.612M745.678 344.086L539.681 320.763L415.068 302.049" stroke="#99306F" stroke-width="2"/>
</g>
<path d="M99.168 431.375L-19 455.765L5.72845 492.802M99.168 431.375L112.193 354.14M99.168 431.375L207.709 379.546M99.168 431.375L165.048 503.304M99.168 431.375L341.922 486.818M99.168 431.375L5.72845 492.802M112.193 354.14L284.159 282.098M112.193 354.14L207.709 379.546M284.159 282.098H406.669M284.159 282.098L406.669 306.602M284.159 282.098L207.709 379.546M406.669 282.098L535.786 318.119M406.669 282.098V306.602M406.669 282.098L207.709 379.546M406.669 282.098L456.818 251.159L535.786 318.119M535.786 318.119L673.397 158.68M535.786 318.119L641.873 404.275M535.786 318.119L431.02 416.357M535.786 318.119L406.669 306.602M535.786 318.119L720.966 251.159M673.397 158.68L1023.75 201.137M673.397 158.68L882.739 273.743M673.397 158.68L720.966 251.159M1023.75 201.137L1165.7 190.861M1023.75 201.137V318.119M1023.75 201.137L882.739 273.743M1023.75 201.137L720.966 251.159M1023.75 201.137L1232.34 300.165M1165.7 190.861L1329.17 149.646M1165.7 190.861L1232.34 300.165M1165.7 190.861L1023.75 318.119M1165.7 190.861L1342.01 237.157M1165.7 190.861L1224.03 96.4622M1329.17 149.646L1421.67 84.0413M1329.17 149.646L1342.01 237.157M1329.17 149.646L1232.34 300.165M1329.17 149.646L1511.9 244.836M1329.17 149.646L1224.03 96.4622M1421.67 84.0413L1464.71 12M1421.67 84.0413L1511.9 244.836M1421.67 84.0413L1342.01 237.157M1421.67 84.0413L1535 54.344M1421.67 84.0413L1535 96.4622M1421.67 84.0413L1535 158.68M1421.67 84.0413L1224.03 96.4622M1464.71 12L1535 21.0334V54.344M1464.71 12L1224.03 96.4622M1464.71 12L1535 54.344M1535 455.765L1464.71 320.362M1535 455.765V368.029M1535 455.765H1511.9M1464.71 320.362L1511.9 244.836M1464.71 320.362L1535 338.218M1464.71 320.362L1535 368.029M1464.71 320.362L1342.01 306.602M1464.71 320.362L1262.54 431.375M1511.9 244.836L1342.01 237.157M1511.9 244.836L1342.01 306.602M1342.01 237.157L1232.34 300.165M1342.01 237.157V306.602M1342.01 237.157L1535 368.029M1232.34 300.165L1277.64 354.14M1232.34 300.165L1023.75 318.119M1232.34 300.165L1342.01 306.602M1277.64 354.14L1262.54 431.375M1277.64 354.14L999.397 404.275M1277.64 354.14L1023.75 318.119M1277.64 354.14L1110.5 471.5L999.397 404.275M1262.54 431.375L1511.9 455.765M1262.54 431.375L1342.01 306.602M1511.9 455.765L1342.01 306.602M1023.75 318.119L999.397 404.275M1023.75 318.119L882.739 273.743M1023.75 318.119L936.726 475.639M999.397 404.275L936.726 475.639M999.397 404.275L919.171 338.218M936.726 475.639L919.171 338.218M936.726 475.639L756.076 437.36M919.171 338.218L882.739 273.743M919.171 338.218L738.521 344.203M919.171 338.218L756.076 437.36M882.739 273.743L720.966 251.159M882.739 273.743L738.521 344.203M720.966 251.159L641.873 404.275M720.966 251.159L738.521 344.203M641.873 404.275L756.076 437.36M641.873 404.275L471.227 461.298M641.873 404.275L637 484M756.076 437.36L738.521 344.203M756.076 437.36L637 484M431.02 416.357L471.227 461.298M431.02 416.357L406.669 306.602M431.02 416.357L341.922 486.818M431.02 416.357L207.709 379.546M471.227 461.298L637 484M406.669 306.602L341.922 486.818M406.669 306.602L207.709 379.546M207.709 379.546L165.048 503.304M207.709 379.546L341.922 486.818M165.048 503.304L341.922 486.818M165.048 503.304L5.72845 492.802M1535 54.344V96.4622M1535 96.4622V158.68M1535 158.68V338.218M1535 338.218V368.029" stroke="url(#paint1_linear_3947_186600)" stroke-width="2"/>
</g>
<g clip-path="url(#clip1_3947_186600)">
<mask id="mask1_3947_186600" style="mask-type:luminance" maskUnits="userSpaceOnUse" x="908" y="443" width="56" height="56">
<path d="M964 443H908V499H964V443Z" fill="white"/>
</mask>
<g mask="url(#mask1_3947_186600)">
<path d="M962.77 466.964L940.036 444.23L939.192 443.387L938.258 443H933.742L932.808 443.387L931.964 444.23L909.23 466.964L908.387 467.808L908 468.742V473.258L908.387 474.192L909.23 475.036L931.964 497.77L932.808 498.613L933.742 499H938.258L939.192 498.613L940.036 497.77L962.77 475.036L963.613 474.192L964 473.258V468.742L963.613 467.808L962.77 466.964Z" fill="#014847"/>
<path d="M933.974 493.758V482.837L934.264 482.547H937.739L938.029 482.837V493.758L937.739 494.048H934.264L933.974 493.758Z" fill="#32E6E2"/>
<path d="M933.974 459.163V448.242L934.264 447.952H937.739L938.029 448.242V459.163L937.739 459.453H934.264L933.974 459.163Z" fill="#32E6E2"/>
<path d="M924.796 485.666H924.317L921.929 483.279V482.8L925.111 479.617L927.638 479.619L927.977 479.955V482.483L924.796 485.666Z" fill="#32E6E2"/>
<path d="M921.929 459.321V458.844L924.317 456.455H924.794L927.977 459.638V462.163L927.64 462.504H925.113L921.929 459.321Z" fill="#32E6E2"/>
<path d="M912.314 468.968H924.597L924.887 469.258V472.737L924.597 473.026H912.314L912.024 472.737V469.258L912.314 468.968Z" fill="#32E6E2"/>
<path d="M942.511 478.235H939.038L938.748 477.945V469.816C938.75 468.368 938.182 467.248 936.435 467.211C935.538 467.187 934.509 467.211 933.411 467.255L933.246 467.425L933.248 477.945L932.958 478.235H929.485L929.195 477.945V464.055L929.485 463.765H937.299C940.336 463.765 942.797 466.226 942.797 469.263V477.945L942.508 478.235H942.511Z" fill="white"/>
<path d="M959.686 473.032H947.403L947.113 472.742V469.263L947.403 468.974H959.686L959.976 469.263V472.742L959.686 473.032Z" fill="#32E6E2"/>
</g>
</g>
<path d="M704.805 160.957C704.805 157.245 700.175 153.727 693.077 151.545C694.715 144.281 693.987 138.501 690.78 136.651C690.04 136.217 689.176 136.011 688.232 136.011V138.559C688.755 138.559 689.176 138.661 689.528 138.855C691.075 139.746 691.747 143.139 691.223 147.502C691.098 148.576 690.893 149.706 690.643 150.86C688.414 150.312 685.98 149.889 683.42 149.615C681.885 147.502 680.292 145.583 678.688 143.904C682.396 140.443 685.877 138.547 688.243 138.547V136C685.115 136 681.02 138.239 676.88 142.122C672.739 138.262 668.644 136.046 665.516 136.046V138.593C667.871 138.593 671.363 140.477 675.071 143.915C673.479 145.594 671.886 147.502 670.373 149.615C667.803 149.889 665.368 150.312 663.139 150.871C662.877 149.729 662.684 148.621 662.547 147.559C662.013 143.196 662.673 139.804 664.208 138.901C664.549 138.696 664.993 138.604 665.516 138.604V136.057C664.561 136.057 663.696 136.263 662.946 136.697C659.749 138.547 659.033 144.315 660.682 151.557C653.607 153.75 649 157.256 649 160.957C649 164.669 653.63 168.187 660.727 170.369C659.089 177.633 659.817 183.412 663.025 185.263C663.765 185.697 664.629 185.902 665.584 185.902C668.713 185.902 672.808 183.664 676.948 179.78C681.088 183.641 685.183 185.857 688.311 185.857C689.267 185.857 690.131 185.651 690.882 185.217C694.078 183.367 694.795 177.599 693.146 170.357C700.198 168.176 704.805 164.658 704.805 160.957ZM689.995 153.338C689.574 154.812 689.051 156.331 688.459 157.85C687.993 156.936 687.504 156.023 686.969 155.109C686.446 154.195 685.889 153.304 685.331 152.436C686.946 152.676 688.505 152.973 689.995 153.338ZM684.785 165.503C683.898 167.045 682.988 168.507 682.044 169.866C680.349 170.015 678.631 170.094 676.902 170.094C675.185 170.094 673.467 170.015 671.784 169.877C670.84 168.518 669.918 167.068 669.031 165.537C668.167 164.041 667.382 162.522 666.665 160.991C667.37 159.461 668.167 157.93 669.02 156.434C669.907 154.892 670.817 153.43 671.761 152.071C673.456 151.922 675.173 151.842 676.902 151.842C678.62 151.842 680.338 151.922 682.021 152.059C682.965 153.418 683.887 154.869 684.774 156.4C685.638 157.896 686.423 159.415 687.14 160.946C686.423 162.476 685.638 164.007 684.785 165.503ZM688.459 164.018C689.073 165.549 689.597 167.079 690.029 168.564C688.539 168.929 686.969 169.238 685.343 169.478C685.9 168.598 686.457 167.696 686.981 166.771C687.504 165.857 687.993 164.932 688.459 164.018ZM676.925 176.205C675.867 175.109 674.809 173.887 673.763 172.55C674.787 172.596 675.833 172.63 676.891 172.63C677.96 172.63 679.018 172.607 680.053 172.55C679.03 173.887 677.972 175.109 676.925 176.205ZM668.462 169.478C666.847 169.238 665.289 168.941 663.799 168.575C664.22 167.102 664.743 165.583 665.334 164.064C665.801 164.977 666.29 165.891 666.824 166.805C667.359 167.719 667.905 168.61 668.462 169.478ZM676.868 145.709C677.926 146.805 678.984 148.027 680.031 149.364C679.007 149.318 677.96 149.284 676.902 149.284C675.833 149.284 674.775 149.307 673.74 149.364C674.764 148.027 675.822 146.805 676.868 145.709ZM668.451 152.436C667.894 153.316 667.336 154.218 666.813 155.143C666.29 156.057 665.801 156.971 665.334 157.884C664.72 156.354 664.197 154.823 663.765 153.338C665.255 152.984 666.824 152.676 668.451 152.436ZM658.157 166.736C654.13 165.012 651.525 162.75 651.525 160.957C651.525 159.164 654.13 156.891 658.157 155.177C659.135 154.755 660.204 154.378 661.308 154.024C661.956 156.263 662.809 158.593 663.867 160.98C662.82 163.356 661.979 165.674 661.342 167.901C660.216 167.547 659.146 167.159 658.157 166.736ZM664.276 183.058C662.729 182.167 662.058 178.775 662.582 174.412C662.707 173.338 662.911 172.208 663.162 171.054C665.391 171.602 667.825 172.025 670.385 172.299C671.92 174.412 673.513 176.331 675.117 178.01C671.408 181.471 667.928 183.367 665.562 183.367C665.05 183.355 664.618 183.253 664.276 183.058ZM691.257 174.355C691.792 178.718 691.132 182.11 689.597 183.013C689.255 183.218 688.812 183.31 688.289 183.31C685.934 183.31 682.442 181.425 678.734 177.987C680.326 176.308 681.919 174.401 683.432 172.287C686.002 172.013 688.437 171.591 690.666 171.031C690.928 172.185 691.132 173.293 691.257 174.355ZM695.637 166.736C694.659 167.159 693.589 167.536 692.486 167.89C691.838 165.651 690.984 163.321 689.927 160.934C690.973 158.558 691.815 156.24 692.452 154.012C693.578 154.366 694.647 154.755 695.648 155.177C699.675 156.902 702.28 159.164 702.28 160.957C702.268 162.75 699.663 165.023 695.637 166.736Z" fill="#61DAFB"/>
<path d="M676.902 166.147C679.758 166.147 682.073 163.821 682.073 160.951C682.073 158.082 679.758 155.755 676.902 155.755C674.046 155.755 671.73 158.082 671.73 160.951C671.73 163.821 674.046 166.147 676.902 166.147Z" fill="#61DAFB"/>
<g clip-path="url(#clip2_3947_186600)">
<path d="M717.166 220.015C717.046 220.027 716.663 220.064 716.318 220.092C708.363 220.809 700.913 225.098 696.195 231.695C693.587 235.315 691.891 239.512 691.252 243.928C691.027 245.466 691 245.92 691 248.006C691 250.091 691.027 250.546 691.252 252.083C692.773 262.597 700.256 271.431 710.405 274.705C712.223 275.29 714.138 275.69 716.318 275.93C717.166 276.023 720.833 276.023 721.682 275.93C725.443 275.515 728.628 274.584 731.771 272.98C732.252 272.735 732.345 272.668 732.28 272.613C732.236 272.581 730.184 269.827 727.72 266.5L723.242 260.452L717.631 252.149C714.544 247.584 712.003 243.851 711.982 243.851C711.96 243.846 711.938 247.535 711.928 252.039C711.911 259.926 711.905 260.244 711.807 260.43C711.665 260.698 711.556 260.808 711.326 260.928C711.151 261.015 710.997 261.033 710.171 261.033H709.223L708.971 260.873C708.816 260.775 708.689 260.637 708.605 260.474L708.489 260.228L708.501 249.253L708.517 238.275L708.687 238.06C708.774 237.946 708.961 237.798 709.091 237.726C709.317 237.617 709.404 237.606 710.351 237.606C711.468 237.606 711.653 237.651 711.944 237.968C712.026 238.055 715.064 242.631 718.699 248.142C722.334 253.654 727.304 261.18 729.746 264.875L734.18 271.59L734.403 271.442C736.391 270.15 738.493 268.312 740.157 266.396C743.686 262.359 745.975 257.389 746.749 252.083C746.973 250.545 747 250.091 747 248.006C747 245.92 746.973 245.466 746.748 243.928C745.227 233.413 737.744 224.58 727.595 221.307C725.804 220.727 723.899 220.327 721.764 220.086C721.239 220.032 717.621 219.971 717.167 220.015H717.166ZM728.628 236.949C728.759 237.015 728.875 237.106 728.97 237.217C729.065 237.328 729.137 237.457 729.182 237.596C729.226 237.738 729.236 240.781 729.226 247.638L729.209 257.48L727.473 254.82L725.733 252.16V245.006C725.733 240.382 725.755 237.781 725.788 237.656C725.827 237.511 725.895 237.374 725.988 237.255C726.081 237.137 726.198 237.038 726.33 236.966C726.554 236.851 726.636 236.84 727.497 236.84C728.306 236.84 728.449 236.851 728.628 236.949V236.949Z" fill="white"/>
</g>
<path d="M462.466 228L456 239.085L449.534 228H428L456 276L484 228H462.466Z" fill="#41B883"/>
<path d="M462.466 228L455.999 239.085L449.533 228H439.199L455.999 256.8L472.799 228H462.466Z" fill="#34495E"/>
<path d="M855.908 196.568L853.992 199.909L847.438 188.48L827.318 223.559H840.94C840.94 225.404 842.426 226.899 844.259 226.899H827.318C826.132 226.899 825.037 226.262 824.444 225.229C823.852 224.195 823.852 222.922 824.445 221.888L844.564 186.81C845.157 185.776 846.253 185.139 847.438 185.139C848.624 185.139 849.72 185.776 850.312 186.81L855.908 196.568V196.568Z" fill="#00C58E"/>
<path d="M870.433 221.888L857.825 199.908L855.909 196.567L853.992 199.908L841.386 221.888C840.793 222.921 840.793 224.195 841.386 225.228C841.978 226.262 843.074 226.899 844.259 226.899H867.555C868.741 226.899 869.837 226.263 870.43 225.229C871.023 224.195 871.023 222.922 870.43 221.888H870.433ZM844.259 223.558L855.909 203.249L867.555 223.558L844.259 223.558Z" fill="#2F495E"/>
<path d="M844.259 223.558L855.909 203.249L867.555 223.558L844.259 223.558Z" fill="#111111"/>
<path d="M879.446 225.229C878.853 226.262 877.758 226.899 876.573 226.899H867.555C869.388 226.899 870.873 225.403 870.873 223.558H876.566L860.413 195.394L857.825 199.908L855.908 196.568L857.54 193.724C858.133 192.69 859.228 192.053 860.414 192.053C861.599 192.053 862.695 192.69 863.288 193.724L879.446 221.888C880.039 222.922 880.039 224.195 879.446 225.229V225.229Z" fill="#108775"/>
<g clip-path="url(#clip3_3947_186600)">
<path fill-rule="evenodd" clip-rule="evenodd" d="M1024.23 176.491C1031.66 171.761 1041.93 173.966 1047.13 181.406V181.446C1048.36 183.174 1049.24 185.131 1049.71 187.202C1050.17 189.273 1050.22 191.416 1049.85 193.506C1049.49 195.502 1048.73 197.403 1047.61 199.096C1049.24 202.201 1049.79 205.761 1049.17 209.211C1048.79 211.256 1048 213.2 1046.84 214.921C1045.67 216.643 1044.16 218.104 1042.41 219.211L1029.37 227.486C1021.94 232.216 1011.67 230.011 1006.47 222.571C1005.24 220.844 1004.36 218.888 1003.89 216.817C1003.42 214.746 1003.37 212.602 1003.75 210.511C1004.11 208.516 1004.87 206.614 1005.98 204.921C1004.35 201.815 1003.81 198.253 1004.43 194.801C1004.8 192.756 1005.59 190.811 1006.76 189.089C1007.92 187.367 1009.43 185.907 1011.19 184.801L1024.23 176.491ZM1016.75 222.976C1018.74 223.714 1020.9 223.824 1022.96 223.291C1023.89 223.04 1024.79 222.647 1025.61 222.126L1038.65 213.816C1039.71 213.149 1040.62 212.269 1041.32 211.23C1042.02 210.192 1042.5 209.019 1042.72 207.786C1042.94 206.53 1042.91 205.241 1042.63 203.996C1042.35 202.751 1041.82 201.575 1041.08 200.536C1039.87 198.794 1038.16 197.465 1036.17 196.728C1034.18 195.991 1032.01 195.882 1029.96 196.416C1029.02 196.664 1028.13 197.057 1027.31 197.581L1022.31 200.751C1022.06 200.907 1021.79 201.024 1021.51 201.101C1020.9 201.257 1020.25 201.221 1019.66 200.999C1019.06 200.778 1018.55 200.381 1018.19 199.861C1017.96 199.548 1017.8 199.192 1017.72 198.817C1017.63 198.441 1017.62 198.051 1017.69 197.671C1017.75 197.301 1017.9 196.948 1018.11 196.636C1018.32 196.323 1018.59 196.058 1018.91 195.856L1031.96 187.561C1032.2 187.405 1032.47 187.287 1032.76 187.211C1033.37 187.05 1034.01 187.079 1034.61 187.295C1035.2 187.51 1035.72 187.901 1036.09 188.416C1036.49 188.98 1036.67 189.668 1036.62 190.356L1036.57 190.856L1037.07 191.001C1038.9 191.556 1040.63 192.419 1042.17 193.551L1042.84 194.051L1043.09 193.301C1043.22 192.903 1043.32 192.497 1043.4 192.086C1043.62 190.83 1043.59 189.541 1043.31 188.296C1043.03 187.051 1042.5 185.874 1041.76 184.836C1040.55 183.094 1038.84 181.764 1036.85 181.026C1034.86 180.288 1032.69 180.178 1030.64 180.711C1029.71 180.963 1028.82 181.354 1028.01 181.871L1014.95 190.181C1013.89 190.848 1012.98 191.729 1012.28 192.768C1011.58 193.806 1011.11 194.979 1010.89 196.211C1010.66 197.467 1010.69 198.755 1010.97 200C1011.25 201.245 1011.77 202.422 1012.51 203.461C1013.72 205.2 1015.43 206.527 1017.42 207.263C1019.4 208 1021.56 208.111 1023.61 207.581C1024.55 207.331 1025.44 206.94 1026.26 206.421L1031.26 203.246C1031.5 203.09 1031.77 202.972 1032.06 202.896C1032.68 202.736 1033.33 202.769 1033.93 202.991C1034.53 203.212 1035.04 203.612 1035.41 204.136C1035.63 204.449 1035.79 204.803 1035.88 205.178C1035.96 205.554 1035.97 205.942 1035.91 206.321C1035.84 206.694 1035.7 207.048 1035.49 207.361C1035.28 207.675 1035 207.94 1034.68 208.141L1021.66 216.451C1021.41 216.608 1021.14 216.725 1020.86 216.801C1020.24 216.962 1019.59 216.929 1018.99 216.707C1018.39 216.486 1017.88 216.086 1017.51 215.561C1017.11 215.003 1016.92 214.322 1016.97 213.636L1017.01 213.136L1016.51 212.991C1014.69 212.441 1012.97 211.586 1011.43 210.461L1010.76 209.961L1010.51 210.711C1010.38 211.105 1010.28 211.508 1010.2 211.916C1009.98 213.173 1010.01 214.462 1010.29 215.707C1010.57 216.952 1011.09 218.128 1011.84 219.166C1013.05 220.909 1014.76 222.239 1016.75 222.976Z" fill="#FF3C00"/>
<path d="M1016.75 222.976C1018.74 223.714 1020.9 223.824 1022.96 223.291C1023.89 223.04 1024.79 222.647 1025.61 222.126L1038.65 213.816C1039.71 213.149 1040.62 212.269 1041.32 211.23C1042.02 210.192 1042.5 209.019 1042.72 207.786C1042.94 206.53 1042.91 205.241 1042.63 203.996C1042.35 202.751 1041.82 201.575 1041.08 200.536C1039.87 198.794 1038.16 197.465 1036.17 196.728C1034.18 195.991 1032.01 195.882 1029.96 196.416C1029.02 196.664 1028.13 197.057 1027.31 197.581L1022.31 200.751C1022.06 200.907 1021.79 201.024 1021.51 201.101C1020.9 201.257 1020.25 201.221 1019.66 200.999C1019.06 200.778 1018.55 200.381 1018.19 199.861C1017.96 199.548 1017.8 199.192 1017.72 198.817C1017.63 198.441 1017.62 198.051 1017.69 197.671C1017.75 197.301 1017.9 196.948 1018.11 196.636C1018.32 196.323 1018.59 196.058 1018.91 195.856L1031.96 187.561C1032.2 187.405 1032.47 187.287 1032.76 187.211C1033.37 187.05 1034.01 187.079 1034.61 187.295C1035.2 187.51 1035.72 187.901 1036.09 188.416C1036.49 188.98 1036.67 189.668 1036.62 190.356L1036.57 190.856L1037.07 191.001C1038.9 191.556 1040.63 192.419 1042.17 193.551L1042.84 194.051L1043.09 193.301C1043.22 192.903 1043.32 192.497 1043.4 192.086C1043.62 190.83 1043.59 189.541 1043.31 188.296C1043.03 187.051 1042.5 185.874 1041.76 184.836C1040.55 183.094 1038.84 181.764 1036.85 181.026C1034.86 180.288 1032.69 180.178 1030.64 180.711C1029.71 180.963 1028.82 181.354 1028.01 181.871L1014.95 190.181C1013.89 190.848 1012.98 191.729 1012.28 192.768C1011.58 193.806 1011.11 194.979 1010.89 196.211C1010.66 197.467 1010.69 198.755 1010.97 200C1011.25 201.245 1011.77 202.422 1012.51 203.461C1013.72 205.2 1015.43 206.527 1017.42 207.263C1019.4 208 1021.56 208.111 1023.61 207.581C1024.55 207.331 1025.44 206.94 1026.26 206.421L1031.26 203.246C1031.5 203.09 1031.77 202.972 1032.06 202.896C1032.68 202.736 1033.33 202.769 1033.93 202.991C1034.53 203.212 1035.04 203.612 1035.41 204.136C1035.63 204.449 1035.79 204.803 1035.88 205.178C1035.96 205.554 1035.97 205.942 1035.91 206.321C1035.84 206.694 1035.7 207.048 1035.49 207.361C1035.28 207.675 1035 207.94 1034.68 208.141L1021.66 216.451C1021.41 216.608 1021.14 216.725 1020.86 216.801C1020.24 216.962 1019.59 216.929 1018.99 216.707C1018.39 216.486 1017.88 216.086 1017.51 215.561C1017.11 215.003 1016.92 214.322 1016.97 213.636L1017.01 213.136L1016.51 212.991C1014.69 212.441 1012.97 211.586 1011.43 210.461L1010.76 209.961L1010.51 210.711C1010.38 211.105 1010.28 211.508 1010.2 211.916C1009.98 213.173 1010.01 214.462 1010.29 215.707C1010.57 216.952 1011.09 218.128 1011.84 219.166C1013.05 220.909 1014.76 222.239 1016.75 222.976Z" fill="#111111"/>
</g>
<path d="M736.406 421.769L757.824 409.346L779.413 421.769V447.813L757.824 460.149L736.406 447.813V421.769Z" fill="#111111"/>
<path d="M779.337 420.271L760.045 409.069C758.828 408.376 757.244 408.376 756.018 409.069L736.519 420.271C735.264 420.993 734.375 422.351 734.375 423.803V446.178C734.375 447.63 735.287 448.988 736.542 449.714L741.694 452.64C744.156 453.853 745.026 453.853 746.147 453.853C749.793 453.853 751.875 451.648 751.875 447.803V425.714C751.875 425.402 751.713 424.937 751.406 424.937H748.946C748.635 424.937 747.938 425.402 747.938 425.713V447.802C747.938 449.507 746.396 451.203 743.514 449.762L738.191 446.694C738.006 446.594 737.875 446.391 737.875 446.178V423.803C737.875 423.592 738.118 423.38 738.305 423.272L757.74 412.089C757.922 411.987 758.189 411.987 758.37 412.089L777.568 423.27C777.752 423.38 777.687 423.586 777.687 423.803V446.178C777.687 446.391 777.767 446.599 777.586 446.702L758.298 457.891C758.133 457.991 757.927 457.991 757.746 457.891L752.799 454.939C752.65 454.852 752.473 454.821 752.33 454.901C750.954 455.681 750.7 455.785 749.409 456.232C749.091 456.343 748.623 456.535 749.588 457.076L756.062 460.906C756.682 461.265 757.387 461.451 758.095 461.451C758.814 461.451 759.517 461.265 760.137 460.906L779.337 449.714C780.592 448.982 781.188 447.63 781.188 446.178V423.803C781.188 422.351 780.593 420.997 779.337 420.271V420.271ZM764.086 442.632C758.956 442.632 757.825 441.217 757.449 438.666C757.405 438.391 757.172 438.062 756.892 438.062H754.385C754.075 438.062 753.825 438.439 753.825 438.748C753.825 442.014 755.601 445.972 764.086 445.972C770.228 445.972 773.75 443.585 773.75 439.361C773.75 435.174 770.92 434.075 764.964 433.286C758.943 432.49 758.331 432.088 758.331 430.678C758.331 429.515 758.849 427.964 763.307 427.964C767.291 427.964 768.759 428.819 769.363 431.504C769.415 431.756 769.645 431.937 769.906 431.937H772.423C772.578 431.937 772.726 431.875 772.834 431.764C772.939 431.645 772.995 431.496 772.981 431.336C772.591 426.712 769.519 424.558 763.307 424.558C757.781 424.558 754.484 426.891 754.484 430.803C754.484 435.046 757.764 436.218 763.069 436.743C769.415 437.365 769.908 438.293 769.908 439.541C769.908 441.709 768.168 442.632 764.086 442.632Z" fill="#83CD29"/>
<g clip-path="url(#clip4_3947_186600)">
<path d="M607.25 443.25H662.75V498.75H607.25V443.25Z" fill="#212121" stroke="#F7FBFC" stroke-width="0.5"/>
<path fill-rule="evenodd" clip-rule="evenodd" d="M648.157 479.944C648.454 483.769 648.454 485.562 648.454 487.52H639.603C639.603 487.094 639.611 486.704 639.619 486.308C639.643 485.079 639.668 483.796 639.468 481.207C639.205 477.417 637.573 476.574 634.571 476.574H631.912H620.65V469.678H634.993C638.784 469.678 640.679 468.524 640.679 465.471C640.679 462.786 638.784 461.159 634.993 461.159H620.65V454.41H636.572C645.155 454.41 649.42 458.464 649.42 464.939C649.42 469.783 646.419 472.942 642.364 473.468C645.787 474.153 647.788 476.1 648.157 479.944Z" fill="white"/>
<path d="M620.65 487.52V482.379H630.009C631.572 482.379 631.912 483.538 631.912 484.23V487.52H620.65Z" fill="#111111"/>
<path d="M620.615 487.52V487.555H620.65H631.912H631.947V487.52V484.23C631.947 483.879 631.861 483.408 631.575 483.024C631.287 482.638 630.801 482.344 630.009 482.344H620.65H620.615V482.379V487.52Z" stroke="white" stroke-opacity="0.8"/>
</g>
<g clip-path="url(#clip5_3947_186600)">
<path fill-rule="evenodd" clip-rule="evenodd" d="M447.1 435H498.9C500.06 435 501 435.94 501 437.1V488.9C501 490.06 500.06 491 498.9 491H447.1C445.94 491 445 490.06 445 488.9V437.1C445 435.94 445.94 435 447.1 435ZM476.13 464.793V460.2H456.2V464.793H463.315V485.243H468.98V464.793H476.13ZM478.388 484.703C479.302 485.168 480.382 485.518 481.629 485.751C482.877 485.983 484.191 486.1 485.573 486.1C486.92 486.1 488.199 485.972 489.411 485.716C490.623 485.46 491.686 485.038 492.599 484.45C493.513 483.862 494.236 483.093 494.769 482.144C495.302 481.195 495.568 480.022 495.568 478.625C495.568 477.612 495.416 476.725 495.111 475.962C494.807 475.199 494.368 474.521 493.794 473.927C493.22 473.333 492.532 472.801 491.73 472.329C490.927 471.858 490.023 471.412 489.016 470.993C488.278 470.69 487.616 470.396 487.031 470.111C486.445 469.826 485.947 469.535 485.538 469.238C485.128 468.941 484.812 468.627 484.589 468.295C484.367 467.963 484.255 467.587 484.255 467.168C484.255 466.784 484.355 466.438 484.554 466.129C484.753 465.821 485.034 465.556 485.397 465.335C485.76 465.113 486.205 464.942 486.732 464.819C487.259 464.697 487.845 464.636 488.489 464.636C488.957 464.636 489.452 464.671 489.973 464.741C490.494 464.811 491.018 464.918 491.545 465.064C492.072 465.209 492.585 465.393 493.082 465.614C493.58 465.835 494.04 466.091 494.461 466.382V461.161C493.606 460.835 492.672 460.593 491.659 460.436C490.647 460.279 489.484 460.2 488.173 460.2C486.838 460.2 485.573 460.343 484.378 460.628C483.184 460.913 482.133 461.359 481.225 461.964C480.318 462.569 479.6 463.341 479.073 464.278C478.546 465.215 478.283 466.336 478.283 467.64C478.283 469.305 478.766 470.725 479.732 471.901C480.698 473.077 482.165 474.073 484.132 474.888C484.905 475.202 485.625 475.511 486.293 475.813C486.961 476.116 487.537 476.431 488.023 476.756C488.509 477.082 488.893 477.437 489.174 477.822C489.455 478.206 489.596 478.643 489.596 479.132C489.596 479.493 489.508 479.827 489.332 480.136C489.156 480.444 488.89 480.712 488.533 480.939C488.176 481.166 487.731 481.344 487.198 481.472C486.665 481.6 486.041 481.664 485.327 481.664C484.109 481.664 482.903 481.452 481.708 481.027C480.514 480.602 479.407 479.964 478.388 479.114V484.703Z" fill="#3078C6"/>
<path d="M476.13 464.793V460.2H456.2V464.793H463.315V485.243H468.98V464.793H476.13Z" fill="#111111"/>
<path d="M478.388 484.703C479.302 485.168 480.382 485.518 481.629 485.751C482.877 485.983 484.191 486.1 485.573 486.1C486.92 486.1 488.199 485.972 489.411 485.716C490.623 485.46 491.686 485.038 492.599 484.45C493.513 483.862 494.236 483.093 494.769 482.144C495.302 481.195 495.568 480.022 495.568 478.625C495.568 477.612 495.416 476.725 495.111 475.962C494.807 475.199 494.368 474.521 493.794 473.927C493.22 473.333 492.532 472.801 491.73 472.329C490.927 471.858 490.023 471.412 489.016 470.993C488.278 470.69 487.616 470.396 487.031 470.111C486.445 469.826 485.947 469.535 485.538 469.238C485.128 468.941 484.812 468.627 484.589 468.295C484.367 467.963 484.255 467.587 484.255 467.168C484.255 466.784 484.355 466.438 484.554 466.129C484.753 465.821 485.034 465.556 485.397 465.335C485.76 465.113 486.205 464.942 486.732 464.819C487.259 464.697 487.845 464.636 488.489 464.636C488.957 464.636 489.452 464.671 489.973 464.741C490.494 464.811 491.018 464.918 491.545 465.064C492.072 465.209 492.585 465.393 493.082 465.614C493.58 465.835 494.04 466.091 494.461 466.382V461.161C493.606 460.835 492.672 460.593 491.659 460.436C490.647 460.279 489.484 460.2 488.173 460.2C486.838 460.2 485.573 460.343 484.378 460.628C483.184 460.913 482.133 461.359 481.225 461.964C480.318 462.569 479.6 463.341 479.073 464.278C478.546 465.215 478.283 466.336 478.283 467.64C478.283 469.305 478.766 470.725 479.732 471.901C480.698 473.077 482.165 474.073 484.132 474.888C484.905 475.202 485.625 475.511 486.293 475.813C486.961 476.116 487.537 476.431 488.023 476.756C488.509 477.082 488.893 477.437 489.174 477.822C489.455 478.206 489.596 478.643 489.596 479.132C489.596 479.493 489.508 479.827 489.332 480.136C489.156 480.444 488.89 480.712 488.533 480.939C488.176 481.166 487.731 481.344 487.198 481.472C486.665 481.6 486.041 481.664 485.327 481.664C484.109 481.664 482.903 481.452 481.708 481.027C480.514 480.602 479.407 479.964 478.388 479.114V484.703Z" fill="#111111"/>
</g>
<path fill-rule="evenodd" clip-rule="evenodd" d="M368.916 375L395.416 421H342.416L368.916 375Z" fill="url(#paint2_linear_3947_186600)"/>
<g clip-path="url(#clip6_3947_186600)">
<path d="M1083.41 216.068H1124.49C1128.53 216.068 1131.83 219.35 1131.83 223.41V264.505C1131.83 268.549 1128.55 271.848 1124.49 271.848H1083.41C1079.37 271.848 1076.07 268.566 1076.07 264.505V223.393C1076.07 219.35 1079.35 216.068 1083.41 216.068Z" fill="url(#paint3_linear_3947_186600)"/>
<path d="M1104.59 230.161C1095.9 230.161 1088.84 237.216 1088.84 245.929C1088.84 254.642 1095.9 261.68 1104.59 261.68C1113.29 261.68 1120.34 254.625 1120.34 245.912C1120.34 237.199 1113.3 230.161 1104.59 230.161ZM1104.59 257.027C1098.47 257.027 1093.49 252.053 1093.49 245.929C1093.49 239.804 1098.47 234.83 1104.59 234.83C1110.72 234.83 1115.69 239.804 1115.69 245.929C1115.69 252.053 1110.73 257.027 1104.59 257.027ZM1104.59 237.097V245.37C1104.59 245.607 1104.85 245.776 1105.07 245.658L1112.41 241.851C1112.58 241.767 1112.63 241.564 1112.54 241.395C1111.02 238.721 1108.2 236.894 1104.93 236.776C1104.76 236.776 1104.59 236.911 1104.59 237.097ZM1094.31 231.024L1093.34 230.059C1092.39 229.112 1090.87 229.112 1089.92 230.059L1088.77 231.21C1087.83 232.157 1087.83 233.68 1088.77 234.627L1089.72 235.575C1089.87 235.727 1090.09 235.693 1090.23 235.541C1090.79 234.779 1091.4 234.052 1092.07 233.375C1092.77 232.682 1093.48 232.072 1094.25 231.514C1094.42 231.413 1094.44 231.176 1094.31 231.024ZM1109.75 228.52V226.608C1109.75 225.271 1108.67 224.188 1107.33 224.188H1101.7C1100.36 224.188 1099.28 225.271 1099.28 226.608V228.57C1099.28 228.79 1099.48 228.943 1099.7 228.892C1101.28 228.435 1102.93 228.198 1104.61 228.198C1106.22 228.198 1107.81 228.418 1109.35 228.841C1109.55 228.892 1109.75 228.74 1109.75 228.52Z" fill="#111111"/>
</g>
<path d="M1122.07 448.228C1121.58 448.225 1121.12 448.03 1120.77 447.686C1120.43 447.341 1120.23 446.874 1120.23 446.387C1120.23 445.899 1120.43 445.431 1120.77 445.086C1121.12 444.741 1121.58 444.547 1122.07 444.545C1122.56 444.548 1123.03 444.743 1123.37 445.087C1123.72 445.432 1123.91 445.899 1123.91 446.387C1123.91 446.874 1123.72 447.342 1123.37 447.687C1123.03 448.031 1122.56 448.226 1122.07 448.228ZM1122.07 442.673C1121.09 442.679 1120.15 443.072 1119.45 443.767C1118.75 444.462 1118.36 445.403 1118.36 446.387V457.525C1118.35 461.598 1115 464.948 1110.93 464.952C1106.86 464.948 1103.51 461.598 1103.5 457.525V446.387C1103.48 445.417 1103.08 444.495 1102.38 443.816C1101.69 443.138 1100.76 442.756 1099.79 442.752C1098.82 442.756 1097.89 443.138 1097.2 443.816C1096.5 444.495 1096.1 445.417 1096.08 446.387V457.525C1096.08 465.715 1102.74 472.378 1110.93 472.378C1119.12 472.378 1125.78 465.715 1125.78 457.525V446.387C1125.78 445.403 1125.39 444.462 1124.69 443.767C1123.99 443.072 1123.05 442.679 1122.07 442.673ZM1154.34 470.507H1154.29C1153.8 470.504 1153.33 470.31 1152.99 469.965C1152.64 469.62 1152.45 469.153 1152.44 468.665C1152.45 468.177 1152.64 467.71 1152.99 467.365C1153.33 467.02 1153.8 466.826 1154.29 466.823H1154.34C1154.82 466.84 1155.27 467.041 1155.61 467.384C1155.94 467.727 1156.13 468.187 1156.13 468.665C1156.13 469.144 1155.94 469.603 1155.61 469.946C1155.27 470.29 1154.82 470.491 1154.34 470.507ZM1137.95 457.525L1129.44 466.04C1128.77 466.73 1128.4 467.652 1128.4 468.61C1128.41 469.593 1128.8 470.535 1129.5 471.23C1130.19 471.926 1131.13 472.319 1132.12 472.323C1133.08 472.323 1134 471.953 1134.69 471.29L1143.2 462.775L1151.72 471.29C1152.41 471.953 1153.33 472.323 1154.29 472.323C1155.27 472.319 1156.21 471.926 1156.91 471.23C1157.6 470.535 1158 469.593 1158 468.61C1158 467.652 1157.63 466.73 1156.97 466.04L1148.45 457.525L1156.97 449.01C1157.63 448.32 1158 447.398 1158 446.44C1158 445.457 1157.6 444.515 1156.91 443.82C1156.21 443.124 1155.27 442.731 1154.29 442.727C1153.33 442.727 1152.41 443.097 1151.72 443.76L1143.2 452.277L1134.69 443.76C1134 443.097 1133.07 442.726 1132.12 442.727C1131.13 442.731 1130.19 443.124 1129.5 443.82C1128.8 444.515 1128.41 445.457 1128.4 446.44C1128.4 447.398 1128.77 448.32 1129.44 449.01L1137.95 457.525ZM1088.99 470.508C1087.98 470.508 1087.15 469.675 1087.15 468.665C1087.15 467.653 1087.98 466.822 1088.99 466.822C1089.48 466.823 1089.95 467.018 1090.29 467.364C1090.64 467.709 1090.83 468.177 1090.84 468.665C1090.84 469.675 1090 470.508 1088.99 470.508ZM1090.41 442.955C1089.73 442.676 1088.99 442.603 1088.27 442.746C1087.55 442.889 1086.89 443.242 1086.37 443.76L1077.85 452.277L1069.34 443.76C1068.64 443.065 1067.7 442.675 1066.72 442.675C1065.73 442.68 1064.79 443.072 1064.1 443.767C1063.4 444.462 1063.01 445.404 1063 446.387V468.663L1063 468.775C1063 469.758 1063.4 470.7 1064.09 471.396C1064.79 472.091 1065.73 472.484 1066.71 472.488C1067.7 472.484 1068.64 472.091 1069.33 471.396C1070.03 470.7 1070.42 469.758 1070.43 468.775L1070.42 468.663V455.347L1075.23 460.15C1075.92 460.846 1076.87 461.237 1077.85 461.237C1078.84 461.237 1079.78 460.846 1080.48 460.15L1085.28 455.347V468.663L1085.28 468.775C1085.28 469.758 1085.68 470.7 1086.37 471.396C1087.07 472.091 1088.01 472.484 1088.99 472.488C1089.98 472.484 1090.92 472.091 1091.61 471.396C1092.31 470.7 1092.7 469.758 1092.71 468.775L1092.7 468.663V446.387C1092.7 444.887 1091.8 443.53 1090.41 442.955Z" fill="white"/>
<g filter="url(#filter1_b_3947_186600)">
<rect x="420" y="293" width="686" height="112" rx="24" fill="#111111" fill-opacity="0.01"/>
</g>
<g clip-path="url(#clip7_3947_186600)">
<path d="M1263 337.881C1263 339.163 1261.97 340.196 1260.72 340.196H1226.81C1225.56 340.196 1224.53 339.163 1224.53 337.881V309.74C1224.53 308.458 1225.56 307.425 1226.81 307.425H1260.72C1261.97 307.425 1263 308.458 1263 309.74V337.881Z" fill="#FF6633"/>
<path d="M1263 337.881C1263 339.163 1261.97 340.196 1260.72 340.196H1226.81C1225.56 340.196 1224.53 339.163 1224.53 337.881V309.74C1224.53 308.458 1225.56 307.425 1226.81 307.425H1260.72C1261.97 307.425 1263 308.458 1263 309.74V337.881Z" fill="url(#paint4_linear_3947_186600)"/>
<path d="M1231.23 335.494C1229.94 335.494 1228.95 334.461 1228.95 333.179V314.691C1228.95 313.409 1229.98 312.376 1231.23 312.376C1232.47 312.376 1233.51 313.409 1233.51 314.691V333.179C1233.54 334.461 1232.51 335.494 1231.23 335.494Z" fill="#F5F5F5"/>
<path d="M1251.6 323.668L1258.3 315.974C1259.12 315.012 1259.05 313.552 1258.08 312.697C1257.12 311.842 1255.7 311.949 1254.84 312.91L1248.54 320.177L1242.23 312.91C1241.41 311.949 1239.95 311.842 1238.99 312.697C1238.03 313.552 1237.96 315.012 1238.78 315.974L1245.47 323.704L1238.78 331.398C1237.96 332.359 1238.03 333.82 1238.99 334.675C1239.42 335.067 1239.95 335.245 1240.49 335.245C1241.13 335.245 1241.77 334.995 1242.23 334.461L1248.54 327.194L1254.84 334.461C1255.31 334.995 1255.95 335.245 1256.59 335.245C1257.12 335.245 1257.66 335.067 1258.08 334.675C1259.05 333.82 1259.12 332.359 1258.3 331.398L1251.6 323.668Z" fill="#F5F5F5"/>
<path d="M1156.85 329.51V318.111H1154V314.549H1160.41V329.51H1163.26V333.072H1154V329.51H1156.85ZM1160.41 308.137C1160.41 309.313 1159.45 310.275 1158.27 310.275C1157.1 310.275 1156.14 309.313 1156.14 308.137C1156.14 306.962 1157.1 306 1158.27 306C1159.45 306 1160.41 306.962 1160.41 308.137Z" fill="white"/>
<path d="M1168.25 329.51V318.111H1165.4V314.549H1172.1V316.686C1174.23 314.941 1176.48 314.157 1178.54 314.157C1180.61 314.157 1182.03 315.119 1182.82 317.043C1185.17 315.119 1187.38 314.157 1189.41 314.157C1190.58 314.157 1191.54 314.407 1192.29 314.941C1193.04 315.475 1193.57 316.152 1193.82 316.936C1194.07 317.755 1194.22 318.93 1194.22 320.498V329.51H1197.42V333.072H1190.62V321.175C1190.62 320.106 1190.58 319.358 1190.48 318.93C1190.37 318.503 1190.16 318.147 1189.76 317.826C1189.37 317.541 1188.91 317.399 1188.37 317.399C1186.84 317.399 1185.13 318.182 1183.17 319.785V329.51H1186.06V333.072H1179.68V320.854C1179.68 319.643 1179.5 318.788 1179.18 318.218C1178.83 317.684 1178.26 317.399 1177.44 317.399C1176.08 317.399 1173.95 317.933 1171.85 319.536V329.51H1175.44V333.072H1165.4V329.51H1168.25Z" fill="white"/>
<path d="M1220.25 314.549V318.111H1217.19L1217.16 331.433C1217.16 333.286 1217.05 334.675 1216.87 335.565C1216.69 336.456 1216.23 337.382 1215.52 338.308C1214.8 339.234 1213.74 340.018 1212.28 340.659C1210.85 341.3 1209.21 341.621 1207.47 341.621C1204.8 341.621 1202.41 340.802 1200.31 339.163L1202.62 336.527C1204.19 337.774 1205.9 338.379 1207.75 338.379C1208.78 338.379 1209.71 338.166 1210.6 337.774C1211.49 337.382 1212.13 336.883 1212.56 336.313C1212.99 335.743 1213.27 335.209 1213.38 334.675C1213.52 334.176 1213.56 333.286 1213.56 332.075V330.4C1212.99 331.113 1212.1 331.825 1210.92 332.466C1209.71 333.108 1208.39 333.428 1206.97 333.428C1204.37 333.428 1202.23 332.502 1200.59 330.685C1198.95 328.869 1198.13 326.589 1198.13 323.917C1198.13 320.996 1199.02 318.645 1200.84 316.829C1202.66 315.012 1204.72 314.122 1207.11 314.122C1209.5 314.122 1211.92 315.404 1213.81 317.363V314.513H1220.25V314.549ZM1201.95 323.882C1201.95 325.734 1202.48 327.266 1203.55 328.477C1204.62 329.652 1205.97 330.258 1207.65 330.258C1209.28 330.258 1210.67 329.652 1211.85 328.477C1213.02 327.301 1213.63 325.77 1213.63 323.882C1213.63 321.994 1213.02 320.462 1211.85 319.322C1210.67 318.182 1209.32 317.612 1207.75 317.612C1206.18 317.612 1204.83 318.182 1203.69 319.322C1202.55 320.391 1201.95 321.958 1201.95 323.882Z" fill="white"/>
</g>
</g>
</g>
<defs>
<filter id="filter0_f_3947_186600" x="-10.1553" y="13.8481" width="1546.16" height="615.207" filterUnits="userSpaceOnUse" color-interpolation-filters="sRGB">
<feFlood flood-opacity="0" result="BackgroundImageFix"/>
<feBlend mode="normal" in="SourceGraphic" in2="BackgroundImageFix" result="shape"/>
<feGaussianBlur stdDeviation="4" result="effect1_foregroundBlur_3947_186600"/>
</filter>
<filter id="filter1_b_3947_186600" x="408" y="281" width="710" height="136" filterUnits="userSpaceOnUse" color-interpolation-filters="sRGB">
<feFlood flood-opacity="0" result="BackgroundImageFix"/>
<feGaussianBlur in="BackgroundImageFix" stdDeviation="6"/>
<feComposite in2="SourceAlpha" operator="in" result="effect1_backgroundBlur_3947_186600"/>
<feBlend mode="normal" in="SourceGraphic" in2="effect1_backgroundBlur_3947_186600" result="shape"/>
</filter>
<radialGradient id="paint0_radial_3947_186600" cx="0" cy="0" r="1" gradientUnits="userSpaceOnUse" gradientTransform="translate(762.5 319) rotate(-180) scale(763.5 319)">
<stop offset="0.796875" stop-color="white"/>
<stop offset="1" stop-color="white" stop-opacity="0"/>
</radialGradient>
<linearGradient id="paint1_linear_3947_186600" x1="1527" y1="11.9999" x2="-19" y2="526" gradientUnits="userSpaceOnUse">
<stop stop-color="#005CC5"/>
<stop offset="1" stop-color="#29ABE2"/>
</linearGradient>
<linearGradient id="paint2_linear_3947_186600" x1="395.909" y1="458.39" x2="370.083" y2="417.507" gradientUnits="userSpaceOnUse">
<stop stop-color="white"/>
<stop offset="1" stop-color="white"/>
</linearGradient>
<linearGradient id="paint3_linear_3947_186600" x1="1055.02" y1="291.335" x2="1148.72" y2="200.643" gradientUnits="userSpaceOnUse">
<stop stop-color="#00AEFF"/>
<stop offset="1" stop-color="#3369E7"/>
</linearGradient>
<linearGradient id="paint4_linear_3947_186600" x1="1243.76" y1="340.196" x2="1243.76" y2="307.425" gradientUnits="userSpaceOnUse">
<stop stop-color="#D84A2E"/>
<stop offset="1" stop-color="#FF6633"/>
</linearGradient>
<clipPath id="clip0_3947_186600">
<rect width="1526" height="639" fill="white"/>
</clipPath>
<clipPath id="clip1_3947_186600">
<rect width="56" height="56" fill="white" transform="translate(908 443)"/>
</clipPath>
<clipPath id="clip2_3947_186600">
<rect width="56" height="56" fill="white" transform="translate(691 220)"/>
</clipPath>
<clipPath id="clip3_3947_186600">
<rect width="56" height="56" fill="white" transform="translate(999 174)"/>
</clipPath>
<clipPath id="clip4_3947_186600">
<rect width="56" height="56" fill="white" transform="translate(607 443)"/>
</clipPath>
<clipPath id="clip5_3947_186600">
<rect width="56" height="56" fill="white" transform="translate(445 435)"/>
</clipPath>
<clipPath id="clip6_3947_186600">
<rect width="55.8308" height="56" fill="white" transform="translate(1076 216)"/>
</clipPath>
<clipPath id="clip7_3947_186600">
<rect width="109" height="35.6209" fill="white" transform="translate(1154 306)"/>
</clipPath>
</defs>
</svg>
