<svg width="428" height="694" viewBox="0 0 428 694" fill="none" xmlns="http://www.w3.org/2000/svg">
<g clip-path="url(#clip0_3004_247176)">
<g filter="url(#filter0_d_3004_247176)">
<rect x="127.849" y="192.937" width="120" height="120" rx="22" fill="white"/>
</g>
<path d="M152.455 227.858L187.378 215.423L223.242 227.637L217.435 273.814L187.378 290.449L157.792 274.035L152.455 227.858Z" fill="#070707"/>
<path d="M223.241 227.637L187.377 215.423V290.449L217.434 273.841L223.241 227.637V227.637Z" fill="#4E4E4F"/>
<path d="M187.431 224.183L165.67 272.57L173.799 272.432L178.168 261.516H197.69L202.474 272.57L210.243 272.708L187.431 224.183ZM187.487 239.685L194.842 255.05H181.016L187.487 239.685Z" fill="white"/>
<g filter="url(#filter1_d_3004_247176)">
<rect x="74.8486" y="4.93652" width="120" height="120" rx="22" fill="white"/>
</g>
<path d="M135.295 72.1085C139.255 72.1085 142.466 68.898 142.466 64.9376C142.466 60.9772 139.255 57.7666 135.295 57.7666C131.335 57.7666 128.124 60.9772 128.124 64.9376C128.124 68.898 131.335 72.1085 135.295 72.1085Z" fill="#070707"/>
<path d="M134.849 79.6286C156.1 79.6286 173.327 73.0509 173.327 64.9369C173.327 56.8228 156.1 50.2451 134.849 50.2451C113.597 50.2451 96.3701 56.8228 96.3701 64.9369C96.3701 73.0509 113.597 79.6286 134.849 79.6286Z" stroke="#070707" stroke-width="5.113"/>
<path d="M122.123 72.2826C132.749 90.6865 147.059 102.317 154.086 98.26C161.113 94.203 158.196 75.9948 147.57 57.5908C136.945 39.1869 122.635 27.5564 115.608 31.6135C108.581 35.6705 111.498 53.8787 122.123 72.2826Z" stroke="#070707" stroke-width="5.113"/>
<path d="M122.123 57.5895C111.497 75.9935 108.58 94.2017 115.607 98.2587C122.634 102.316 136.944 90.6852 147.569 72.2813C158.195 53.8773 161.112 35.6691 154.085 31.6121C147.058 27.5551 132.748 39.1856 122.123 57.5895Z" stroke="#070707" stroke-width="5.113"/>
<g filter="url(#filter2_d_3004_247176)">
<rect x="264.849" y="43.9365" width="120" height="120" rx="22" fill="white"/>
</g>
<path d="M298.525 132.274L293.293 68.3369L355.771 68.4654L350.24 132.274L324.768 139.649L298.525 132.274Z" fill="#070707"/>
<path d="M324.769 133.474V74.4258L350.498 74.5114L345.909 127.342L324.769 133.474Z" fill="#4E4E4F"/>
<path d="M343.421 89.1778L344.15 81.373H304.57L306.757 105.301H334.073L333.002 115.507L324.254 117.865L315.377 115.292L314.905 109.203H307.057L308.13 121.639L324.253 126.141L340.505 121.639L342.692 97.368H314.005L313.19 89.1778H343.421Z" fill="white"/>
<g filter="url(#filter3_d_3004_247176)">
<rect x="7.66504" y="445.937" width="120" height="120" rx="22" fill="white"/>
</g>
<path d="M41.4118 534.483L36.1309 469.944L99.199 470.074L93.6149 534.483L67.903 541.928L41.4118 534.483Z" fill="#070707"/>
<path d="M67.9053 535.695V476.091L93.8771 476.177L89.2457 529.505L67.9053 535.695Z" fill="#4E4E4F"/>
<path d="M87.4278 483.71H47.4746L48.5569 491.501H67.516L48.8601 499.509L49.9419 507.041H77.4289L76.433 517.559L67.1264 519.377L58.686 517.213L58.0365 511.239H50.2883L51.3269 523.663L67.9489 528.294L83.8786 523.23L85.9131 498.946H69.0739L87.4272 491.328L87.4278 483.71Z" fill="white"/>
<g filter="url(#filter4_d_3004_247176)">
<rect x="179.665" y="372.937" width="120" height="120" rx="22" fill="white"/>
</g>
<path d="M209.525 429.148L216.235 417.576C216.297 417.461 216.38 417.357 216.473 417.274L228.516 405.993C228.645 405.874 228.801 405.78 228.967 405.717L239.309 401.9L248.03 408.024L243.688 421.898L227.397 437.111L214.11 440.105L209.525 429.148ZM215.059 442.626L221.256 460.437L226.355 440.074L215.059 442.626ZM261.736 402.103L251.906 407.592L268.198 419.482C268.54 417.951 268.939 415.862 269.032 414.086C269.027 414.066 269.027 414.04 269.027 414.014C269.079 411.482 268.664 408.837 267.296 406.551C266.068 404.494 264.224 402.988 261.804 402.041C261.783 402.061 261.767 402.087 261.736 402.103ZM250.979 445.704L244.243 425.013L230.568 437.793L250.979 445.704ZM246.694 423.961L253.383 444.506C258.617 438.782 263.975 431.929 267.032 423.502L246.694 423.961ZM265.581 420.867L250.285 409.707L246.657 421.294L265.581 420.867ZM213.022 444.849L208.478 452.687C210.032 459.921 215.416 461.541 218.966 461.937L213.022 444.849ZM211.851 441.579L208.032 432.46V448.162L211.851 441.579ZM258.337 400.952C258.316 400.947 258.296 400.937 258.27 400.937H242.574L249.569 405.853L258.337 400.952ZM229.091 440.074L223.655 461.775C234.708 460.14 242.999 454.172 249.72 448.073L229.091 440.074ZM264.472 459.129C264.161 459.129 263.845 459.02 263.591 458.796L252.627 449.011C247.808 453.505 242.18 458.072 235.252 461.15L264.493 459.156C264.664 459.145 264.825 459.093 264.975 459.025C264.814 459.093 264.643 459.129 264.472 459.129ZM254.544 447.157L265.353 456.802C265.581 457.005 265.7 457.27 265.752 457.546L267.986 428.153C264.519 435.704 259.425 441.907 254.544 447.157Z" fill="#070707"/>
<g filter="url(#filter5_d_3004_247176)">
<rect x="346.032" y="445.937" width="120" height="120" rx="22" fill="white"/>
</g>
<path d="M434.009 477.55C426.88 467.281 412.687 464.273 402.484 470.748L384.497 482.259C379.592 485.333 376.19 490.37 375.209 496.06C374.359 500.835 375.079 505.74 377.368 509.992C375.798 512.346 374.752 514.962 374.294 517.709C373.247 523.531 374.621 529.548 378.022 534.323C385.216 544.591 399.344 547.6 409.548 541.125L427.534 529.679C432.44 526.605 435.841 521.568 436.822 515.878C437.672 511.103 436.953 506.198 434.663 501.947C436.233 499.592 437.28 496.976 437.738 494.229C438.849 488.342 437.476 482.325 434.009 477.55Z" fill="#070707"/>
<path d="M400.717 535.303C394.896 536.807 388.813 534.518 385.412 529.613C383.319 526.735 382.534 523.137 383.122 519.606C383.253 519.017 383.384 518.494 383.515 517.905L383.842 516.859L384.758 517.513C386.916 519.082 389.271 520.26 391.821 521.044L392.476 521.241L392.41 521.895C392.345 522.81 392.606 523.792 393.13 524.576C394.176 526.081 396.007 526.8 397.773 526.342C398.166 526.212 398.558 526.081 398.885 525.885L416.807 514.438C417.722 513.85 418.311 513 418.507 511.953C418.703 510.907 418.442 509.795 417.853 508.944C416.807 507.44 414.975 506.786 413.209 507.244C412.817 507.375 412.424 507.505 412.097 507.702L405.23 512.084C404.118 512.803 402.875 513.327 401.567 513.654C395.746 515.158 389.663 512.869 386.262 507.963C384.234 505.085 383.384 501.488 384.038 497.956C384.627 494.555 386.72 491.481 389.663 489.65L407.65 478.204C408.762 477.484 410.004 476.961 411.312 476.568C417.134 475.064 423.216 477.353 426.618 482.259C428.711 485.137 429.495 488.734 428.907 492.266C428.776 492.854 428.645 493.378 428.449 493.966L428.122 495.013L427.206 494.359C425.048 492.789 422.693 491.612 420.142 490.827L419.488 490.631L419.554 489.977C419.619 489.061 419.357 488.08 418.834 487.295C417.788 485.791 415.956 485.137 414.19 485.594C413.798 485.725 413.405 485.856 413.078 486.052L395.157 497.498C394.242 498.087 393.653 498.937 393.457 499.984C393.26 501.03 393.522 502.142 394.111 502.992C395.157 504.497 396.989 505.151 398.755 504.693C399.147 504.562 399.539 504.431 399.866 504.235L406.734 499.853C407.846 499.133 409.089 498.61 410.397 498.218C416.218 496.713 422.301 499.003 425.702 503.908C427.795 506.786 428.58 510.383 427.991 513.915C427.402 517.316 425.309 520.39 422.366 522.222L404.379 533.668C403.268 534.387 402.025 534.911 400.717 535.303Z" fill="white"/>
<g filter="url(#filter6_d_3004_247176)">
<rect x="332.532" y="228.937" width="120" height="120" rx="22" fill="white"/>
</g>
<mask id="mask0_3004_247176" style="mask-type:alpha" maskUnits="userSpaceOnUse" x="359" y="251" width="67" height="75">
<path d="M393.936 251.894L425.532 269.797V286.162L406.575 275.112V283.365L415.983 288.82L416.124 302.946L406.575 297.492V318.192L393.936 325.466V251.894ZM391.128 251.894V325.466L378.49 318.192V275.112L359.532 286.162V269.797L391.128 251.894Z" fill="white"/>
</mask>
<g mask="url(#mask0_3004_247176)">
<path d="M393.936 251.894L425.532 269.797V286.162L406.575 275.112V283.365L415.983 288.82L416.124 302.946L406.575 297.492V318.192L393.936 325.466V251.894ZM391.128 251.894V325.466L378.49 318.192V275.112L359.532 286.162V269.797L391.128 251.894Z" fill="#070707"/>
</g>
<g filter="url(#filter7_d_3004_247176)">
<rect x="179.032" y="565.937" width="120" height="120" rx="22" fill="white"/>
</g>
<path d="M239.98 588.703C236.933 588.713 234.82 588.982 232.267 589.422C224.726 590.735 223.352 593.493 223.352 598.574V606.34H240.989V610.26H222.682H214.157C208.992 610.26 204.471 612.694 203.038 618.528C201.42 625.224 201.347 629.418 203.038 636.41C204.322 641.624 207.15 645.534 212.317 645.534H219.435V635.532C219.435 629.719 224.699 623.978 230.731 623.978H244.911C249.855 623.978 254.709 620.329 254.709 615.4V598.574C254.709 593.795 251.262 590.22 246.443 589.419C246.563 589.407 243.002 588.692 239.98 588.703ZM230.213 596.542C231.822 596.542 233.153 597.869 233.153 599.485C233.153 601.118 231.822 602.421 230.213 602.421C228.573 602.421 227.274 601.12 227.274 599.485C227.274 597.875 228.573 596.542 230.213 596.542Z" fill="#4E4E4F"/>
<path d="M238.082 663.171C241.129 663.161 243.242 662.892 245.795 662.451C253.336 661.138 254.71 658.381 254.71 653.3V645.533H237.073V641.614H255.382H263.906C269.072 641.614 273.593 639.18 275.026 633.346C276.644 626.65 276.717 622.456 275.026 615.464C273.74 610.249 270.912 606.34 265.745 606.34H258.627V616.342C258.627 622.154 253.363 627.896 247.331 627.896H233.151C228.207 627.896 223.353 631.545 223.353 636.474V653.3C223.353 658.079 226.8 661.654 231.619 662.455C231.499 662.467 235.06 663.182 238.082 663.171ZM247.851 655.332C246.242 655.332 244.911 654.005 244.911 652.388C244.911 650.756 246.242 649.453 247.851 649.453C249.491 649.453 250.79 650.754 250.79 652.388C250.79 653.999 249.489 655.332 247.851 655.332Z" fill="#070707"/>
</g>
<defs>
<filter id="filter0_d_3004_247176" x="121.849" y="188.937" width="132" height="132" filterUnits="userSpaceOnUse" color-interpolation-filters="sRGB">
<feFlood flood-opacity="0" result="BackgroundImageFix"/>
<feColorMatrix in="SourceAlpha" type="matrix" values="0 0 0 0 0 0 0 0 0 0 0 0 0 0 0 0 0 0 127 0" result="hardAlpha"/>
<feOffset dy="2"/>
<feGaussianBlur stdDeviation="3"/>
<feComposite in2="hardAlpha" operator="out"/>
<feColorMatrix type="matrix" values="0 0 0 0 0.078875 0 0 0 0 0.0770833 0 0 0 0 0.166667 0 0 0 0.06 0"/>
<feBlend mode="normal" in2="BackgroundImageFix" result="effect1_dropShadow_3004_247176"/>
<feBlend mode="normal" in="SourceGraphic" in2="effect1_dropShadow_3004_247176" result="shape"/>
</filter>
<filter id="filter1_d_3004_247176" x="68.8486" y="0.936523" width="132" height="132" filterUnits="userSpaceOnUse" color-interpolation-filters="sRGB">
<feFlood flood-opacity="0" result="BackgroundImageFix"/>
<feColorMatrix in="SourceAlpha" type="matrix" values="0 0 0 0 0 0 0 0 0 0 0 0 0 0 0 0 0 0 127 0" result="hardAlpha"/>
<feOffset dy="2"/>
<feGaussianBlur stdDeviation="3"/>
<feComposite in2="hardAlpha" operator="out"/>
<feColorMatrix type="matrix" values="0 0 0 0 0.078875 0 0 0 0 0.0770833 0 0 0 0 0.166667 0 0 0 0.06 0"/>
<feBlend mode="normal" in2="BackgroundImageFix" result="effect1_dropShadow_3004_247176"/>
<feBlend mode="normal" in="SourceGraphic" in2="effect1_dropShadow_3004_247176" result="shape"/>
</filter>
<filter id="filter2_d_3004_247176" x="258.849" y="39.9365" width="132" height="132" filterUnits="userSpaceOnUse" color-interpolation-filters="sRGB">
<feFlood flood-opacity="0" result="BackgroundImageFix"/>
<feColorMatrix in="SourceAlpha" type="matrix" values="0 0 0 0 0 0 0 0 0 0 0 0 0 0 0 0 0 0 127 0" result="hardAlpha"/>
<feOffset dy="2"/>
<feGaussianBlur stdDeviation="3"/>
<feComposite in2="hardAlpha" operator="out"/>
<feColorMatrix type="matrix" values="0 0 0 0 0.078875 0 0 0 0 0.0770833 0 0 0 0 0.166667 0 0 0 0.06 0"/>
<feBlend mode="normal" in2="BackgroundImageFix" result="effect1_dropShadow_3004_247176"/>
<feBlend mode="normal" in="SourceGraphic" in2="effect1_dropShadow_3004_247176" result="shape"/>
</filter>
<filter id="filter3_d_3004_247176" x="1.66504" y="441.937" width="132" height="132" filterUnits="userSpaceOnUse" color-interpolation-filters="sRGB">
<feFlood flood-opacity="0" result="BackgroundImageFix"/>
<feColorMatrix in="SourceAlpha" type="matrix" values="0 0 0 0 0 0 0 0 0 0 0 0 0 0 0 0 0 0 127 0" result="hardAlpha"/>
<feOffset dy="2"/>
<feGaussianBlur stdDeviation="3"/>
<feComposite in2="hardAlpha" operator="out"/>
<feColorMatrix type="matrix" values="0 0 0 0 0.078875 0 0 0 0 0.0770833 0 0 0 0 0.166667 0 0 0 0.06 0"/>
<feBlend mode="normal" in2="BackgroundImageFix" result="effect1_dropShadow_3004_247176"/>
<feBlend mode="normal" in="SourceGraphic" in2="effect1_dropShadow_3004_247176" result="shape"/>
</filter>
<filter id="filter4_d_3004_247176" x="173.665" y="368.937" width="132" height="132" filterUnits="userSpaceOnUse" color-interpolation-filters="sRGB">
<feFlood flood-opacity="0" result="BackgroundImageFix"/>
<feColorMatrix in="SourceAlpha" type="matrix" values="0 0 0 0 0 0 0 0 0 0 0 0 0 0 0 0 0 0 127 0" result="hardAlpha"/>
<feOffset dy="2"/>
<feGaussianBlur stdDeviation="3"/>
<feComposite in2="hardAlpha" operator="out"/>
<feColorMatrix type="matrix" values="0 0 0 0 0.078875 0 0 0 0 0.0770833 0 0 0 0 0.166667 0 0 0 0.06 0"/>
<feBlend mode="normal" in2="BackgroundImageFix" result="effect1_dropShadow_3004_247176"/>
<feBlend mode="normal" in="SourceGraphic" in2="effect1_dropShadow_3004_247176" result="shape"/>
</filter>
<filter id="filter5_d_3004_247176" x="340.032" y="441.937" width="132" height="132" filterUnits="userSpaceOnUse" color-interpolation-filters="sRGB">
<feFlood flood-opacity="0" result="BackgroundImageFix"/>
<feColorMatrix in="SourceAlpha" type="matrix" values="0 0 0 0 0 0 0 0 0 0 0 0 0 0 0 0 0 0 127 0" result="hardAlpha"/>
<feOffset dy="2"/>
<feGaussianBlur stdDeviation="3"/>
<feComposite in2="hardAlpha" operator="out"/>
<feColorMatrix type="matrix" values="0 0 0 0 0.078875 0 0 0 0 0.0770833 0 0 0 0 0.166667 0 0 0 0.06 0"/>
<feBlend mode="normal" in2="BackgroundImageFix" result="effect1_dropShadow_3004_247176"/>
<feBlend mode="normal" in="SourceGraphic" in2="effect1_dropShadow_3004_247176" result="shape"/>
</filter>
<filter id="filter6_d_3004_247176" x="320.532" y="218.937" width="144" height="144" filterUnits="userSpaceOnUse" color-interpolation-filters="sRGB">
<feFlood flood-opacity="0" result="BackgroundImageFix"/>
<feColorMatrix in="SourceAlpha" type="matrix" values="0 0 0 0 0 0 0 0 0 0 0 0 0 0 0 0 0 0 127 0" result="hardAlpha"/>
<feOffset dy="2"/>
<feGaussianBlur stdDeviation="6"/>
<feComposite in2="hardAlpha" operator="out"/>
<feColorMatrix type="matrix" values="0 0 0 0 0.00854034 0 0 0 0 0.00854034 0 0 0 0 0.00854034 0 0 0 0.08 0"/>
<feBlend mode="normal" in2="BackgroundImageFix" result="effect1_dropShadow_3004_247176"/>
<feBlend mode="normal" in="SourceGraphic" in2="effect1_dropShadow_3004_247176" result="shape"/>
</filter>
<filter id="filter7_d_3004_247176" x="173.032" y="561.937" width="132" height="132" filterUnits="userSpaceOnUse" color-interpolation-filters="sRGB">
<feFlood flood-opacity="0" result="BackgroundImageFix"/>
<feColorMatrix in="SourceAlpha" type="matrix" values="0 0 0 0 0 0 0 0 0 0 0 0 0 0 0 0 0 0 127 0" result="hardAlpha"/>
<feOffset dy="2"/>
<feGaussianBlur stdDeviation="3"/>
<feComposite in2="hardAlpha" operator="out"/>
<feColorMatrix type="matrix" values="0 0 0 0 0.078875 0 0 0 0 0.0770833 0 0 0 0 0.166667 0 0 0 0.06 0"/>
<feBlend mode="normal" in2="BackgroundImageFix" result="effect1_dropShadow_3004_247176"/>
<feBlend mode="normal" in="SourceGraphic" in2="effect1_dropShadow_3004_247176" result="shape"/>
</filter>
<clipPath id="clip0_3004_247176">
<rect width="428" height="694" fill="white"/>
</clipPath>
</defs>
</svg>
