<svg width="432" height="694" viewBox="0 0 432 694" fill="none" xmlns="http://www.w3.org/2000/svg">
<g clip-path="url(#clip0_3004_247254)">
<g filter="url(#filter0_d_3004_247254)">
<rect x="232.867" y="4.20483" width="120" height="120" rx="22" fill="white"/>
</g>
<rect x="259.041" y="30.3787" width="67.6523" height="67.6523" rx="14.9898" fill="#070707"/>
<path d="M303.67 80.0526C304.691 81.7103 305.8 83.2986 308.149 83.2986C310.122 83.2986 311.158 82.3179 311.158 80.9611C311.158 79.3374 310.087 78.7607 307.916 77.8154L306.726 77.3081C303.291 75.851 301.007 74.0252 301.007 70.1687C301.007 66.6144 303.728 63.9097 307.979 63.9097C311.007 63.9097 313.182 64.9582 314.752 67.7043L311.044 70.0743C310.228 68.6172 309.347 68.0435 307.979 68.0435C306.584 68.0435 305.701 68.9239 305.701 70.0743C305.701 71.496 306.586 72.0711 308.628 72.9516L309.818 73.4589C313.867 75.1829 316.15 76.9438 316.15 80.9021C316.15 85.1672 312.781 87.5047 308.26 87.5047C303.837 87.5047 301.325 85.2852 299.927 82.5377L303.67 80.0526ZM286.583 80.1736C287.33 81.5097 288.464 82.5377 290.095 82.5377C291.655 82.5377 292.553 81.9212 292.553 79.5247V63.9082H297.469V80.2798C297.469 85.2454 294.588 87.5047 290.382 87.5047C286.582 87.5047 283.839 84.9298 282.721 82.5377L286.583 80.1736Z" fill="white"/>
<g filter="url(#filter1_d_3004_247254)">
<rect x="42.6836" y="43.2048" width="120" height="120" rx="22" fill="white"/>
</g>
<path d="M137.461 87.1001C137.46 85.7856 137.179 84.624 136.611 83.627C136.052 82.6467 135.216 81.825 134.094 81.1753C124.833 75.8357 115.564 70.5124 106.306 65.1673C103.811 63.7264 101.391 63.779 98.9135 65.2405C95.2275 67.4143 76.7732 77.9872 71.2741 81.1723C69.0094 82.4834 67.9074 84.4898 67.9069 87.0977C67.9033 97.8361 67.9069 108.574 67.9033 119.313C67.9039 120.598 68.173 121.737 68.7166 122.719C69.2753 123.729 70.1234 124.574 71.2711 125.238C76.7705 128.423 95.2273 138.995 98.9124 141.17C101.391 142.632 103.811 142.684 106.307 141.243C115.565 135.898 124.835 130.574 134.097 125.235C135.245 124.571 136.093 123.726 136.651 122.717C137.194 121.735 137.464 120.596 137.464 119.31C137.464 119.31 137.464 97.8388 137.461 87.1001" fill="#070707"/>
<path d="M129.373 104.335H127.066V106.642H124.758V104.335H122.452V102.028H124.758V99.7214H127.066V102.028H129.373V104.335ZM120.955 104.335H118.648V106.642H116.341V104.335H114.034V102.028H116.341V99.7214H118.648V102.028H120.955V104.335Z" fill="white"/>
<path d="M109.418 108.123C107.698 111.173 104.43 113.235 100.679 113.235C96.9512 113.235 93.7015 111.199 91.9729 108.181C91.1045 106.667 90.6484 104.952 90.6502 103.206C90.6502 97.6673 95.1404 93.1773 100.679 93.1773C104.383 93.1773 107.615 95.1874 109.353 98.1744L118.118 93.1268C114.634 87.1124 108.129 83.0662 100.679 83.0662C89.5558 83.0662 80.5391 92.0832 80.5391 103.206C80.5391 106.855 81.5098 110.277 83.2064 113.229C86.6818 119.275 93.2051 123.346 100.679 123.346C108.167 123.346 114.7 119.258 118.171 113.194L109.418 108.123Z" fill="white"/>
<g filter="url(#filter2_d_3004_247254)">
<rect x="299.867" y="445.205" width="120" height="120" rx="22" fill="white"/>
</g>
<path d="M395.017 488.928C395.017 487.599 394.732 486.425 394.158 485.418C393.593 484.427 392.748 483.596 391.614 482.939C382.254 477.543 372.885 472.162 363.529 466.76C361.006 465.303 358.56 465.357 356.057 466.834C352.331 469.031 333.679 479.717 328.121 482.936C325.832 484.262 324.718 486.29 324.717 488.925C324.714 499.779 324.717 510.632 324.714 521.486C324.714 522.785 324.986 523.937 325.536 524.929C326.101 525.95 326.958 526.803 328.118 527.475C333.676 530.694 352.331 541.379 356.055 543.577C358.56 545.055 361.006 545.108 363.53 543.651C372.887 538.249 382.256 532.868 391.617 527.471C392.777 526.8 393.634 525.946 394.199 524.926C394.748 523.934 395.021 522.783 395.021 521.483C395.021 521.483 395.021 499.782 395.017 488.928Z" fill="#070707"/>
<path d="M375.04 499.052V502.085H378.073V499.052H379.59V502.085H382.623V503.602H379.59V506.635H382.623V508.151H379.59V511.185H378.073V508.151H375.04V511.185H373.524V508.151H370.49V506.635H373.524V503.602H370.49V502.085H373.524V499.052H375.04ZM378.073 503.601H375.04V506.635H378.073V503.601Z" fill="white"/>
<path d="M358.506 483.819C366.418 483.819 373.325 488.115 377.025 494.502L376.989 494.44L367.68 499.8C365.846 496.695 362.484 494.599 358.627 494.556L358.506 494.555C352.624 494.555 347.856 499.323 347.856 505.205C347.855 507.058 348.339 508.88 349.261 510.488C351.097 513.693 354.547 515.854 358.506 515.854C362.489 515.854 365.959 513.665 367.786 510.427L367.741 510.504L377.036 515.889C373.376 522.221 366.564 526.505 358.744 526.59L358.506 526.591C350.569 526.591 343.642 522.268 339.952 515.848C338.15 512.713 337.119 509.08 337.119 505.205C337.119 493.394 346.694 483.818 358.506 483.818L358.506 483.819Z" fill="white"/>
<g filter="url(#filter3_d_3004_247254)">
<rect x="127.867" y="372.205" width="120" height="120" rx="22" fill="white"/>
</g>
<path d="M144.092 424.576C143.891 424.576 143.84 424.475 143.941 424.324L145 422.963C145.101 422.812 145.353 422.711 145.554 422.711H163.552C163.754 422.711 163.804 422.862 163.703 423.013L162.846 424.324C162.746 424.475 162.494 424.627 162.342 424.627L144.092 424.576Z" fill="#070707"/>
<path d="M136.48 429.215C136.278 429.215 136.228 429.114 136.329 428.963L137.387 427.602C137.488 427.45 137.74 427.35 137.942 427.35H160.931C161.133 427.35 161.233 427.501 161.183 427.652L160.78 428.862C160.729 429.064 160.528 429.165 160.326 429.165L136.48 429.215Z" fill="#070707"/>
<path d="M148.68 433.853C148.479 433.853 148.428 433.701 148.529 433.55L149.235 432.29C149.336 432.139 149.537 431.987 149.739 431.987H159.822C160.023 431.987 160.124 432.139 160.124 432.34L160.023 433.55C160.023 433.752 159.822 433.903 159.671 433.903L148.68 433.853Z" fill="#070707"/>
<path d="M201.01 423.669C197.834 424.476 195.666 425.081 192.541 425.887C191.785 426.089 191.734 426.14 191.079 425.383C190.323 424.526 189.768 423.972 188.709 423.468C185.533 421.905 182.458 422.358 179.584 424.224C176.156 426.442 174.392 429.719 174.442 433.803C174.492 437.836 177.265 441.163 181.248 441.718C184.676 442.171 187.55 440.961 189.818 438.39C190.272 437.836 190.675 437.231 191.18 436.525C189.365 436.525 187.096 436.525 181.45 436.525C180.391 436.525 180.139 435.87 180.492 435.012C181.147 433.45 182.357 430.828 183.063 429.517C183.214 429.215 183.567 428.711 184.323 428.711C186.894 428.711 196.372 428.711 202.674 428.711C202.573 430.072 202.573 431.433 202.372 432.794C201.817 436.424 200.456 439.751 198.238 442.675C194.608 447.465 189.869 450.439 183.87 451.246C178.929 451.901 174.341 450.943 170.308 447.919C166.577 445.095 164.46 441.365 163.905 436.727C163.25 431.231 164.863 426.291 168.191 421.955C171.77 417.267 176.509 414.292 182.307 413.233C187.046 412.376 191.583 412.931 195.666 415.704C198.338 417.468 200.254 419.888 201.515 422.812C201.817 423.266 201.615 423.518 201.01 423.669Z" fill="#070707"/>
<path d="M217.698 451.548C213.11 451.448 208.926 450.137 205.397 447.112C202.422 444.541 200.557 441.264 199.952 437.382C199.045 431.685 200.608 426.644 204.036 422.157C207.716 417.317 212.152 414.796 218.152 413.738C223.294 412.83 228.134 413.334 232.52 416.309C236.503 419.031 238.973 422.711 239.628 427.551C240.485 434.357 238.519 439.903 233.831 444.642C230.503 448.019 226.42 450.137 221.731 451.095C220.37 451.347 219.009 451.397 217.698 451.548ZM229.697 431.181C229.646 430.526 229.646 430.021 229.545 429.517C228.638 424.526 224.05 421.703 219.261 422.812C214.572 423.871 211.547 426.845 210.438 431.584C209.531 435.517 211.447 439.499 215.076 441.113C217.849 442.323 220.622 442.171 223.294 440.81C227.277 438.743 229.445 435.517 229.697 431.181Z" fill="#070707"/>
<g filter="url(#filter4_d_3004_247254)">
<rect x="-39.1328" y="445.205" width="120" height="120" rx="22" fill="white"/>
</g>
<g clip-path="url(#clip1_3004_247254)">
<path d="M29.7552 471.706L20.8643 487.178L11.9733 471.706H-17.6348L20.8643 538.705L59.3633 471.706H29.7552Z" fill="#070707"/>
<path d="M29.755 471.705L20.8641 487.178L11.9731 471.705H-2.23535L20.8641 511.904L43.9635 471.705H29.755Z" fill="#4E4E4F"/>
</g>
<g filter="url(#filter5_d_3004_247254)">
<rect x="-25.1328" y="228.205" width="120" height="120" rx="22" fill="white"/>
</g>
<path d="M10.5693 297.316V303.391C10.5693 304.414 32.6603 306.129 47.0532 309.465C54.006 307.853 59.1639 305.864 59.1639 303.391V297.316C59.1639 294.844 54.006 292.853 47.0532 291.242C32.6601 294.578 10.5693 296.293 10.5693 297.316Z" fill="#4E4E4F"/>
<path d="M10.5693 273.018V279.092C10.5693 280.116 32.6603 281.831 47.0532 285.167C54.006 283.555 59.1639 281.566 59.1639 279.092V273.018C59.1639 270.546 54.006 268.555 47.0532 266.944C32.6601 270.28 10.5693 271.995 10.5693 273.018Z" fill="#4E4E4F"/>
<path d="M10.5693 285.169V303.392C10.5693 301.873 59.1639 298.836 59.1639 291.243V273.02C59.1639 280.613 10.5693 283.65 10.5693 285.169Z" fill="#070707"/>
<path d="M10.5693 260.872V279.094C10.5693 277.576 59.1639 274.539 59.1639 266.946V248.723C59.1639 256.316 10.5693 259.353 10.5693 260.872Z" fill="#070707"/>
<path d="M10.5693 309.466V327.689C10.5693 326.171 59.1639 323.134 59.1639 315.541V297.318C59.1639 304.911 10.5693 307.948 10.5693 309.466Z" fill="#070707"/>
<g filter="url(#filter6_d_3004_247254)">
<rect x="127.867" y="565.205" width="120" height="120" rx="22" fill="white"/>
</g>
<path d="M224.986 588.087H188.022L152.726 625.206H187.803L187.967 625.039L224.986 588.087Z" fill="#4E4E4F"/>
<path d="M224.986 662.325H150.749H224.986ZM187.967 625.039L187.803 625.206H188.134L187.967 625.039Z" fill="url(#paint0_linear_3004_247254)"/>
<path d="M188.022 588.087H150.749V627.284V625.206H152.726L188.022 588.087Z" fill="#070707"/>
<path d="M187.803 625.204H152.726L150.749 627.283V662.323L187.803 625.204Z" fill="#4E4E4F"/>
<path d="M188.134 625.204H187.803L150.749 662.323H224.986L188.134 625.204Z" fill="#070707"/>
<g filter="url(#filter7_d_3004_247254)">
<rect x="179.867" y="192.205" width="120" height="120" rx="22" fill="white"/>
</g>
<path d="M239.867 216.542C238.906 216.542 237.971 216.741 237.143 217.209L210.96 232.33C209.265 233.307 208.235 235.15 208.235 237.112V267.298C208.235 269.259 209.265 271.1 210.96 272.079L217.798 276.026C221.12 277.663 222.345 277.638 223.857 277.638C228.776 277.638 231.584 274.653 231.584 269.466V239.669C231.584 239.247 231.219 238.946 230.806 238.946H227.526C227.106 238.946 226.748 239.247 226.748 239.669V269.466C226.748 271.765 224.353 274.078 220.466 272.134L213.35 267.965C213.099 267.828 212.905 267.587 212.905 267.298V237.111C212.905 236.825 213.096 236.534 213.35 236.389L239.478 221.324C239.596 221.255 239.73 221.219 239.867 221.219C240.004 221.219 240.138 221.255 240.256 221.324L266.385 236.389C266.634 236.539 266.83 236.817 266.83 237.113V267.299C266.83 267.587 266.685 267.882 266.44 268.022L240.256 283.087C240.032 283.22 239.723 283.22 239.478 283.087L232.752 279.084C232.649 279.029 232.535 279 232.418 279C232.302 279 232.187 279.029 232.085 279.084C230.228 280.137 229.879 280.259 228.137 280.863C227.708 281.013 227.057 281.245 228.36 281.976L237.143 287.145C237.971 287.622 238.911 287.872 239.868 287.868C240.824 287.874 241.764 287.624 242.591 287.145L268.775 272.079C270.47 271.094 271.499 269.259 271.499 267.299V237.112C271.499 235.151 270.47 233.31 268.775 232.331L242.591 217.211C241.771 216.742 240.83 216.543 239.868 216.543L239.867 216.542Z" fill="#070707"/>
<path fill-rule="evenodd" clip-rule="evenodd" d="M240.021 216.176C240.98 216.197 241.931 216.409 242.774 216.891L242.775 216.891L268.96 232.012L268.96 232.012C270.772 233.059 271.867 235.024 271.867 237.112V267.299C271.867 269.387 270.771 271.345 268.96 272.398L268.96 272.398L268.959 272.399L242.776 287.464C241.892 287.975 240.888 288.242 239.867 288.236C238.847 288.24 237.843 287.973 236.959 287.463L236.958 287.463L228.18 282.297C228.179 282.296 228.177 282.295 228.176 282.295C227.841 282.106 227.598 281.933 227.443 281.762C227.288 281.592 227.164 281.356 227.248 281.09C227.321 280.861 227.517 280.736 227.634 280.673C227.762 280.604 227.908 280.553 228.01 280.517L228.016 280.515L228.016 280.515L228.017 280.515L228.023 280.513C229.742 279.916 230.071 279.802 231.903 278.764L231.906 278.762L231.909 278.76C232.065 278.676 232.24 278.631 232.418 278.631C232.596 278.631 232.771 278.676 232.927 278.76L232.934 278.764L239.66 282.766C239.799 282.84 239.966 282.831 240.068 282.77L240.07 282.769L240.073 282.767L266.257 267.702L266.257 267.702L266.258 267.701C266.367 267.639 266.462 267.48 266.462 267.299V237.112C266.462 236.976 266.362 236.807 266.197 236.706C266.197 236.706 266.196 236.705 266.195 236.705L240.071 221.643L240.07 221.642C240.009 221.606 239.939 221.587 239.867 221.587C239.796 221.587 239.726 221.606 239.664 221.642L239.663 221.643L213.534 236.708L213.534 236.708L213.533 236.708C213.376 236.798 213.274 236.976 213.274 237.111V267.298C213.274 267.411 213.353 267.547 213.526 267.641L213.531 267.644L220.642 271.81C222.499 272.735 223.931 272.617 224.881 272.072C225.844 271.519 226.38 270.492 226.38 269.466V239.668C226.38 239.009 226.939 238.578 227.526 238.578H230.806C231.384 238.578 231.952 239.007 231.952 239.668V269.466C231.952 272.124 231.232 274.268 229.833 275.75C228.43 277.235 226.392 278.006 223.857 278.006L223.782 278.006C223.054 278.006 222.35 278.007 221.428 277.806C220.478 277.599 219.311 277.183 217.635 276.356L217.624 276.351L210.776 272.397C208.964 271.351 207.867 269.386 207.867 267.298V237.112C207.867 235.023 208.963 233.055 210.776 232.011L236.96 216.889L236.962 216.889C237.855 216.383 238.855 216.174 239.867 216.174H240.019L240.021 216.176ZM210.96 232.33C209.265 233.306 208.235 235.15 208.235 237.112V267.298C208.235 269.258 209.265 271.1 210.96 272.079L217.798 276.026C221.07 277.638 222.307 277.638 223.788 277.638L223.857 277.638C228.775 277.638 231.584 274.653 231.584 269.466V239.668C231.584 239.247 231.219 238.946 230.806 238.946H227.526C227.106 238.946 226.748 239.247 226.748 239.668V269.466C226.748 271.765 224.353 274.077 220.466 272.134L213.35 267.965C213.098 267.828 212.905 267.586 212.905 267.298V237.111C212.905 236.825 213.096 236.534 213.35 236.389L239.478 221.324C239.596 221.255 239.73 221.219 239.867 221.219C240.004 221.219 240.138 221.255 240.256 221.324L266.385 236.389C266.634 236.539 266.83 236.817 266.83 237.112V267.299C266.83 267.587 266.685 267.882 266.44 268.021L240.256 283.086C240.032 283.22 239.723 283.22 239.478 283.086L232.752 279.084C232.649 279.029 232.535 279 232.418 279C232.302 279 232.187 279.029 232.085 279.084C230.228 280.136 229.879 280.259 228.137 280.863C227.708 281.013 227.057 281.245 228.36 281.975L237.143 287.144C237.971 287.622 238.911 287.872 239.868 287.868C240.824 287.874 241.764 287.624 242.591 287.145L268.775 272.079C270.47 271.094 271.499 269.259 271.499 267.299V237.112C271.499 235.151 270.47 233.31 268.775 232.331L242.591 217.211C241.771 216.742 240.83 216.543 239.868 216.543L239.867 216.542C238.906 216.542 237.971 216.741 237.143 217.209L210.96 232.33Z" fill="#070707"/>
<path d="M246.871 238.111C239.415 238.111 234.975 241.285 234.975 246.562C234.975 252.286 239.382 253.859 246.538 254.566C255.099 255.405 255.766 256.662 255.766 258.347C255.766 261.27 253.436 262.516 247.928 262.516C241.008 262.516 239.487 260.788 238.978 257.346C238.918 256.977 238.632 256.679 238.255 256.679H234.864C234.446 256.679 234.085 257.039 234.085 257.458C234.085 261.864 236.482 267.075 247.928 267.075C256.213 267.075 260.992 263.823 260.992 258.124C260.992 252.476 257.132 250.96 249.095 249.897C240.974 248.823 240.2 248.296 240.2 246.395C240.2 244.825 240.857 242.725 246.871 242.725C252.244 242.725 254.23 243.884 255.043 247.507C255.115 247.847 255.414 248.118 255.766 248.118H259.158C259.366 248.118 259.569 247.99 259.713 247.84C259.856 247.68 259.956 247.5 259.936 247.284C259.41 241.046 255.251 238.111 246.871 238.111V238.111Z" fill="#070707"/>
<path fill-rule="evenodd" clip-rule="evenodd" d="M246.502 254.933C242.921 254.579 239.957 254.004 237.883 252.761C236.838 252.134 236.013 251.334 235.452 250.304C234.891 249.275 234.606 248.04 234.606 246.562C234.606 243.805 235.773 241.58 237.913 240.057C240.039 238.545 243.098 237.743 246.871 237.743C251.094 237.743 254.318 238.481 256.561 240.057C258.821 241.646 260.033 244.05 260.303 247.252C260.336 247.614 260.16 247.891 259.989 248.084L259.984 248.09L259.978 248.095C259.802 248.279 259.509 248.486 259.158 248.486H255.766C255.223 248.486 254.788 248.075 254.684 247.585C254.29 245.832 253.631 244.747 252.481 244.075C251.302 243.385 249.548 243.093 246.871 243.093C243.891 243.093 242.326 243.616 241.508 244.26C240.718 244.883 240.568 245.665 240.568 246.395C240.568 246.853 240.618 247.159 240.764 247.404C240.908 247.644 241.179 247.88 241.744 248.116C242.898 248.597 245.067 248.993 249.143 249.532C253.157 250.063 256.206 250.713 258.251 251.978C259.284 252.617 260.069 253.416 260.591 254.438C261.112 255.456 261.36 256.671 261.36 258.124C261.36 261.093 260.108 263.445 257.775 265.04C255.46 266.623 252.111 267.443 247.928 267.443C242.157 267.443 238.59 266.13 236.466 264.19C234.336 262.245 233.717 259.726 233.717 257.457C233.717 256.835 234.243 256.31 234.864 256.31H238.255C238.85 256.31 239.258 256.778 239.341 257.287L239.342 257.29L239.342 257.292C239.591 258.972 240.071 260.137 241.251 260.914C242.464 261.713 244.479 262.148 247.928 262.148C250.67 262.148 252.552 261.835 253.739 261.202C254.324 260.891 254.732 260.506 254.997 260.047C255.262 259.587 255.398 259.028 255.398 258.347C255.398 257.946 255.357 257.624 255.203 257.336C255.052 257.053 254.767 256.758 254.195 256.467C253.028 255.873 250.785 255.352 246.502 254.933L246.502 254.933ZM255.043 247.507C254.23 243.884 252.244 242.725 246.871 242.725C240.857 242.725 240.2 244.825 240.2 246.395C240.2 248.296 240.974 248.822 249.095 249.897C257.132 250.96 260.992 252.476 260.992 258.124C260.992 263.823 256.213 267.075 247.928 267.075C236.482 267.075 234.085 261.864 234.085 257.457C234.085 257.039 234.446 256.679 234.864 256.679H238.255C238.632 256.679 238.918 256.977 238.978 257.346C239.487 260.788 241.008 262.516 247.928 262.516C253.436 262.516 255.766 261.27 255.766 258.347C255.766 256.662 255.099 255.405 246.538 254.566C239.382 253.858 234.975 252.285 234.975 246.562C234.975 241.284 239.415 238.111 246.871 238.111C255.251 238.111 259.41 241.046 259.936 247.284C259.956 247.5 259.855 247.68 259.713 247.84C259.569 247.989 259.366 248.118 259.158 248.118H255.766C255.414 248.118 255.115 247.847 255.043 247.507Z" fill="#070707"/>
</g>
<defs>
<filter id="filter0_d_3004_247254" x="226.867" y="0.204834" width="132" height="132" filterUnits="userSpaceOnUse" color-interpolation-filters="sRGB">
<feFlood flood-opacity="0" result="BackgroundImageFix"/>
<feColorMatrix in="SourceAlpha" type="matrix" values="0 0 0 0 0 0 0 0 0 0 0 0 0 0 0 0 0 0 127 0" result="hardAlpha"/>
<feOffset dy="2"/>
<feGaussianBlur stdDeviation="3"/>
<feComposite in2="hardAlpha" operator="out"/>
<feColorMatrix type="matrix" values="0 0 0 0 0.078875 0 0 0 0 0.0770833 0 0 0 0 0.166667 0 0 0 0.06 0"/>
<feBlend mode="normal" in2="BackgroundImageFix" result="effect1_dropShadow_3004_247254"/>
<feBlend mode="normal" in="SourceGraphic" in2="effect1_dropShadow_3004_247254" result="shape"/>
</filter>
<filter id="filter1_d_3004_247254" x="36.6836" y="39.2048" width="132" height="132" filterUnits="userSpaceOnUse" color-interpolation-filters="sRGB">
<feFlood flood-opacity="0" result="BackgroundImageFix"/>
<feColorMatrix in="SourceAlpha" type="matrix" values="0 0 0 0 0 0 0 0 0 0 0 0 0 0 0 0 0 0 127 0" result="hardAlpha"/>
<feOffset dy="2"/>
<feGaussianBlur stdDeviation="3"/>
<feComposite in2="hardAlpha" operator="out"/>
<feColorMatrix type="matrix" values="0 0 0 0 0.078875 0 0 0 0 0.0770833 0 0 0 0 0.166667 0 0 0 0.06 0"/>
<feBlend mode="normal" in2="BackgroundImageFix" result="effect1_dropShadow_3004_247254"/>
<feBlend mode="normal" in="SourceGraphic" in2="effect1_dropShadow_3004_247254" result="shape"/>
</filter>
<filter id="filter2_d_3004_247254" x="287.867" y="435.205" width="144" height="144" filterUnits="userSpaceOnUse" color-interpolation-filters="sRGB">
<feFlood flood-opacity="0" result="BackgroundImageFix"/>
<feColorMatrix in="SourceAlpha" type="matrix" values="0 0 0 0 0 0 0 0 0 0 0 0 0 0 0 0 0 0 127 0" result="hardAlpha"/>
<feOffset dy="2"/>
<feGaussianBlur stdDeviation="6"/>
<feComposite in2="hardAlpha" operator="out"/>
<feColorMatrix type="matrix" values="0 0 0 0 0.00854034 0 0 0 0 0.00854034 0 0 0 0 0.00854034 0 0 0 0.08 0"/>
<feBlend mode="normal" in2="BackgroundImageFix" result="effect1_dropShadow_3004_247254"/>
<feBlend mode="normal" in="SourceGraphic" in2="effect1_dropShadow_3004_247254" result="shape"/>
</filter>
<filter id="filter3_d_3004_247254" x="121.867" y="368.205" width="132" height="132" filterUnits="userSpaceOnUse" color-interpolation-filters="sRGB">
<feFlood flood-opacity="0" result="BackgroundImageFix"/>
<feColorMatrix in="SourceAlpha" type="matrix" values="0 0 0 0 0 0 0 0 0 0 0 0 0 0 0 0 0 0 127 0" result="hardAlpha"/>
<feOffset dy="2"/>
<feGaussianBlur stdDeviation="3"/>
<feComposite in2="hardAlpha" operator="out"/>
<feColorMatrix type="matrix" values="0 0 0 0 0.078875 0 0 0 0 0.0770833 0 0 0 0 0.166667 0 0 0 0.06 0"/>
<feBlend mode="normal" in2="BackgroundImageFix" result="effect1_dropShadow_3004_247254"/>
<feBlend mode="normal" in="SourceGraphic" in2="effect1_dropShadow_3004_247254" result="shape"/>
</filter>
<filter id="filter4_d_3004_247254" x="-45.1328" y="441.205" width="132" height="132" filterUnits="userSpaceOnUse" color-interpolation-filters="sRGB">
<feFlood flood-opacity="0" result="BackgroundImageFix"/>
<feColorMatrix in="SourceAlpha" type="matrix" values="0 0 0 0 0 0 0 0 0 0 0 0 0 0 0 0 0 0 127 0" result="hardAlpha"/>
<feOffset dy="2"/>
<feGaussianBlur stdDeviation="3"/>
<feComposite in2="hardAlpha" operator="out"/>
<feColorMatrix type="matrix" values="0 0 0 0 0.078875 0 0 0 0 0.0770833 0 0 0 0 0.166667 0 0 0 0.06 0"/>
<feBlend mode="normal" in2="BackgroundImageFix" result="effect1_dropShadow_3004_247254"/>
<feBlend mode="normal" in="SourceGraphic" in2="effect1_dropShadow_3004_247254" result="shape"/>
</filter>
<filter id="filter5_d_3004_247254" x="-31.1328" y="224.205" width="132" height="132" filterUnits="userSpaceOnUse" color-interpolation-filters="sRGB">
<feFlood flood-opacity="0" result="BackgroundImageFix"/>
<feColorMatrix in="SourceAlpha" type="matrix" values="0 0 0 0 0 0 0 0 0 0 0 0 0 0 0 0 0 0 127 0" result="hardAlpha"/>
<feOffset dy="2"/>
<feGaussianBlur stdDeviation="3"/>
<feComposite in2="hardAlpha" operator="out"/>
<feColorMatrix type="matrix" values="0 0 0 0 0.078875 0 0 0 0 0.0770833 0 0 0 0 0.166667 0 0 0 0.06 0"/>
<feBlend mode="normal" in2="BackgroundImageFix" result="effect1_dropShadow_3004_247254"/>
<feBlend mode="normal" in="SourceGraphic" in2="effect1_dropShadow_3004_247254" result="shape"/>
</filter>
<filter id="filter6_d_3004_247254" x="121.867" y="561.205" width="132" height="132" filterUnits="userSpaceOnUse" color-interpolation-filters="sRGB">
<feFlood flood-opacity="0" result="BackgroundImageFix"/>
<feColorMatrix in="SourceAlpha" type="matrix" values="0 0 0 0 0 0 0 0 0 0 0 0 0 0 0 0 0 0 127 0" result="hardAlpha"/>
<feOffset dy="2"/>
<feGaussianBlur stdDeviation="3"/>
<feComposite in2="hardAlpha" operator="out"/>
<feColorMatrix type="matrix" values="0 0 0 0 0.078875 0 0 0 0 0.0770833 0 0 0 0 0.166667 0 0 0 0.06 0"/>
<feBlend mode="normal" in2="BackgroundImageFix" result="effect1_dropShadow_3004_247254"/>
<feBlend mode="normal" in="SourceGraphic" in2="effect1_dropShadow_3004_247254" result="shape"/>
</filter>
<filter id="filter7_d_3004_247254" x="173.867" y="188.205" width="132" height="132" filterUnits="userSpaceOnUse" color-interpolation-filters="sRGB">
<feFlood flood-opacity="0" result="BackgroundImageFix"/>
<feColorMatrix in="SourceAlpha" type="matrix" values="0 0 0 0 0 0 0 0 0 0 0 0 0 0 0 0 0 0 127 0" result="hardAlpha"/>
<feOffset dy="2"/>
<feGaussianBlur stdDeviation="3"/>
<feComposite in2="hardAlpha" operator="out"/>
<feColorMatrix type="matrix" values="0 0 0 0 0.078875 0 0 0 0 0.0770833 0 0 0 0 0.166667 0 0 0 0.06 0"/>
<feBlend mode="normal" in2="BackgroundImageFix" result="effect1_dropShadow_3004_247254"/>
<feBlend mode="normal" in="SourceGraphic" in2="effect1_dropShadow_3004_247254" result="shape"/>
</filter>
<linearGradient id="paint0_linear_3004_247254" x1="174.731" y1="675.697" x2="208.402" y2="642.025" gradientUnits="userSpaceOnUse">
<stop stop-color="#00AFFF"/>
<stop offset="0.296" stop-color="#00AFFF"/>
<stop offset="0.694" stop-color="#5282FF"/>
<stop offset="1" stop-color="#945DFF"/>
</linearGradient>
<clipPath id="clip0_3004_247254">
<rect width="432" height="694" fill="white"/>
</clipPath>
<clipPath id="clip1_3004_247254">
<rect width="77" height="67" fill="white" transform="translate(-17.6328 471.705)"/>
</clipPath>
</defs>
</svg>
