<svg width="18" height="24" viewBox="0 0 18 24" fill="none" xmlns="http://www.w3.org/2000/svg">
<g clip-path="url(#clip0_3001_233421)">
<path d="M9 0C8.95508 0 4.5 0.0652175 4.5 5.2337C4.56445 6.88043 4.42773 7.9341 4.0625 8.625C3.97266 8.79212 3.73242 9.10802 3.45313 9.48913C2.24609 11.1379 0 14.2174 0 17.4457C0 17.9592 0.306641 18.1284 0.4375 18.1793C0.664063 18.267 1.14844 18.4708 2.98438 16.4837C2.97656 18.2405 3.07617 19.8607 4.14063 20.9837C4.3457 21.1997 4.57813 21.3893 4.84375 21.5543C4.40039 21.8417 4 22.2473 4 22.7446C4 23.9674 6.66602 24 6.96875 24C7.72852 24 8.24023 23.1399 8.42187 22.4185C8.61133 22.4246 8.79883 22.4348 9 22.4348C9.20117 22.4348 9.38867 22.4246 9.57813 22.4185C9.75977 23.1399 10.2715 24 11.0312 24C11.334 24 14 23.9674 14 22.7446C14 22.2473 13.5996 21.8417 13.1563 21.5543C13.4219 21.3893 13.6543 21.1997 13.8594 20.9837C14.9238 19.8628 15.0234 18.2405 15.0156 16.4837C16.8516 18.4708 17.3359 18.267 17.5625 18.1793C17.6934 18.1284 18 17.9592 18 17.4457C18 14.3091 15.7949 11.2459 14.6094 9.60326C14.3027 9.17731 14.041 8.80435 13.9531 8.625C13.6172 7.94022 13.4434 6.67867 13.5 5.21739C13.5 0.110054 9.05078 0 9 0ZM9 12C12.8145 12 12.9922 16.2228 13 20.3967C12.2441 21.0652 10.9355 21.3913 9 21.3913C7.06445 21.3913 5.75586 21.0652 5 20.3967C5.00781 16.2228 5.18555 12 9 12Z" fill="white"/>
</g>
<defs>
<clipPath id="clip0_3001_233421">
<rect width="18" height="24" fill="white"/>
</clipPath>
</defs>
</svg>
