<svg width="16" height="24" viewBox="0 0 16 24" fill="none" xmlns="http://www.w3.org/2000/svg">
<g clip-path="url(#clip0_3001_233423)">
<path d="M13.1429 0H2.85714C1.28 0 0 1.22182 0 2.72727V21.2727C0 22.7782 1.28 24 2.85714 24H13.1429C14.72 24 16 22.7782 16 21.2727V2.72727C16 1.22182 14.72 0 13.1429 0ZM8 21.9545C7.28914 21.9545 6.71429 21.4058 6.71429 20.7273C6.71429 20.0487 7.28914 19.5 8 19.5C8.71086 19.5 9.28571 20.0487 9.28571 20.7273C9.28571 21.4058 8.71086 21.9545 8 21.9545ZM12.5714 18.5455H3.42857C2.79771 18.5455 2.28571 18.0567 2.28571 17.4545V4.36364C2.28571 3.76145 2.79771 3.27273 3.42857 3.27273H12.5714C13.2023 3.27273 13.7143 3.76145 13.7143 4.36364V17.4545C13.7143 18.0567 13.2023 18.5455 12.5714 18.5455Z" fill="white"/>
</g>
<defs>
<clipPath id="clip0_3001_233423">
<rect width="16" height="24" fill="white"/>
</clipPath>
</defs>
</svg>
