<svg xmlns="http://www.w3.org/2000/svg" width="52" height="60" fill="none"><path fill="url(#a)" fill-rule="evenodd" d="M25.532 0 0 15.002v28.13L25.517 60 52 44.995V14.997L25.532 0zm25.54 30.653V16.058l-10.215 5.787v14.777l10.214-5.969zm0 1.07V44.46l-10.215 5.788V37.69l10.214-5.968zm-11.143 6.51v12.54L26 58.667V46.372l13.929-8.139zM25.07 46.367v12.232l-13.464-8.9V38.208l13.464 8.159zm-13.464-9.238 13.464 8.159v-15.03l-13.393-7.87-.07.042v14.7zm-.928.516v11.44L.929 42.64V31.737l9.75 5.908zm-9.75-6.987 9.75 5.908V21.91l.09-.054-9.84-5.783v14.586zM26 45.303l13.929-8.139V22.371L26 30.263v15.04zm13.341-23.66-13.801 7.82-12.957-7.613 13.23-7.871 13.528 7.665zm-14.452-8.188-13.214 7.861-10.3-6.052 13.11-7.703 10.404 5.894zM15.405 7.02l10.397 5.89 10.071-5.99L25.54 1.065 15.405 7.021zm21.393.423-10.072 5.992 13.55 7.677L50.6 15.264l-13.803-7.82z" clip-rule="evenodd"/><defs><linearGradient id="a" x1="-.74" x2="52.088" y1="15.308" y2="46.987" gradientUnits="userSpaceOnUse"><stop stop-color="#fff"/><stop offset="1" stop-color="#3C3C3C"/></linearGradient></defs></svg>