<svg xmlns="http://www.w3.org/2000/svg" width="62" height="58" fill="none"><path stroke="url(#a)" d="M10.863 1 1 19.816M10.863 1l10.101 18.816M10.863 1H31M1 19.816 30.942 57M1 19.816h19.964m40.036 0L51.137 1M61 19.816 30.942 57M61 19.816H40.92M51.137 1 40.92 19.816M51.137 1H31m-.058 56-9.978-37.184M30.942 57l9.978-37.184m-19.956 0H40.92m-19.956 0L31 1m9.92 18.816L31 1"/><defs><radialGradient id="a" cx="0" cy="0" r="1" gradientTransform="matrix(29.49996 43.31251 -42.9596 29.25959 23 20.25)" gradientUnits="userSpaceOnUse"><stop stop-color="#fff"/><stop offset="1" stop-color="#fff" stop-opacity="0"/></radialGradient></defs></svg>