<svg xmlns="http://www.w3.org/2000/svg" width="51" height="58" fill="none"><path fill="url(#a)" fill-rule="evenodd" d="M51 14.29 25.5 0 0 14.29v29.388L25.5 58 51 43.678V14.29zm-17.223 0L26.328 1.43l22.948 12.86H33.777zm-.98 0L25.5 1.69l-7.298 12.6h14.596zm-15.082.84h15.57l7.912 13.66-7.913 13.66H17.715L9.803 28.79l7.912-13.66zm-.492-.84L24.67 1.43 1.724 14.29h15.499zM.85 15.024v27.532L8.824 28.79.85 15.024zm8.464 12.92L1.89 15.13h14.845L9.314 27.944zm0 1.691L1.89 42.45h14.845L9.314 29.635zm7.909 13.655H1.03l24 13.48-7.807-13.48zm8.746 13.48 24-13.48H33.778L25.97 56.77zm6.829-13.48H18.202L25.5 55.889l7.298-12.6zm1.466-.84h14.844l-7.422-12.815-7.422 12.814zm7.912-13.66 7.974 13.766V15.024L42.176 28.79zm-.49-.846L34.264 15.13h14.844l-7.422 12.814z" clip-rule="evenodd"/><defs><radialGradient id="a" cx="0" cy="0" r="1" gradientTransform="matrix(23.80004 32.7826 -28.60675 20.76839 25.5 29)" gradientUnits="userSpaceOnUse"><stop stop-color="#fff"/><stop offset="1" stop-color="#fff" stop-opacity="0"/></radialGradient></defs></svg>