<svg xmlns="http://www.w3.org/2000/svg" width="63" height="58" fill="none"><path fill="url(#a)" fill-rule="evenodd" d="M31.93 57.692 63 35.47 51.073 0H11.927L0 35.47l.45.322v.111h.156L31.5 58l.423-.303.006.002.002-.007zm-.638-.92 6.95-20.869H2.114l29.177 20.869zm-30.2-21.735h22.52L12.365 1.514 1.092 35.037zm12-34.17h36.455l-29.57 20.518L13.092.867zm37.453.375L32.27 13.924l29.399 20.4L50.545 1.243zm11.088 34.126-29.23 20.907 11.141-33.46 18.09 12.553zM20.268 22.252l4.29 12.785H38.53l4.247-12.754L31.5 14.458l-11.232 7.794z" clip-rule="evenodd"/><defs><radialGradient id="a" cx="0" cy="0" r="1" gradientTransform="matrix(28.34992 38.9688 -42.53235 30.94241 31.5 25.375)" gradientUnits="userSpaceOnUse"><stop stop-color="#fff"/><stop offset="1" stop-color="#fff" stop-opacity="0"/></radialGradient></defs></svg>