<svg xmlns="http://www.w3.org/2000/svg" width="58" height="51" fill="none"><path fill="url(#a)" fill-rule="evenodd" d="M24 0h10l24 43-4 8H4.5L0 43 24 0zm19.143 34.5L24.4 1.337 21.154 7.15l4.468 8.07.047.028-.016.028L36.295 34.5h6.848zm1.288.246a.5.5 0 0 1-.43.754H22.528l-3.946 7h37.993L33.413 1h-8.056l19.074 33.746zM23.092 34.5h12.06l-5.976-10.794L23.092 34.5zM14.356 50l3.663-6.5h38.613l-3.25 6.5H14.356zM28.61 22.685a.505.505 0 0 0-.047.07L13.208 50H5.86l19.212-33.706 3.538 6.391zm-4.105-7.416L4.898 49.67 1.146 43 20.581 8.18l3.925 7.09z" clip-rule="evenodd"/><defs><radialGradient id="a" cx="0" cy="0" r="1" gradientTransform="matrix(15.50001 35.99997 -40.94113 17.62746 29 26)" gradientUnits="userSpaceOnUse"><stop stop-color="#fff"/><stop offset="1" stop-color="#fff" stop-opacity="0"/></radialGradient></defs></svg>